<svg width="50" height="55" viewBox="0 0 50 55" fill="none" xmlns="http://www.w3.org/2000/svg">
<path d="M30.9248 0.458577C30.4497 0.897099 30.4314 0.988458 30.541 2.06649C30.7968 4.58799 31.7835 7.47492 33.2453 10.0147C33.9944 11.3303 35.4379 13.2671 36.0408 13.7421C36.1322 13.8335 35.8947 13.8518 35.4927 13.7969C32.4048 13.3219 30.742 13.5046 30.541 14.3268C30.3035 15.277 31.3085 16.3002 33.7203 17.5061C34.506 17.9081 34.8532 18.1822 34.8532 18.4197C34.8532 19.1323 34.104 21.1422 33.5559 21.9279C32.7885 23.0059 30.7603 25.0706 29.7188 25.8563L28.86 26.4775H17.1296C6.78778 26.4775 5.34432 26.441 4.92407 26.1852C4.64999 26.039 4.02875 25.363 3.51714 24.6869C2.23812 22.9876 2.03713 22.8232 1.36108 22.8232C0.33786 22.8232 0.0455123 23.3348 0.063784 25.0341C0.118599 27.6652 1.16009 29.7482 3.06035 31.0637L4.04702 31.7398L4.449 33.6401C4.96061 36.0337 5.25296 36.929 6.29445 39.1216L7.13495 40.8757L5.63666 43.3972C4.79616 44.7858 4.08357 46.1379 4.04702 46.3937C3.99221 46.6495 4.33937 48.6046 4.79616 50.7607C5.25296 52.9167 5.61839 54.7439 5.61839 54.8353C5.61839 54.9084 6.49544 54.9814 7.5552 54.9814H9.47373L9.3641 53.4649C9.30928 52.6427 9.18138 50.8703 9.09002 49.5365L8.92558 47.0881L10.4969 44.6031C12.2876 41.7527 12.7261 41.2228 13.7493 40.6747C14.4619 40.2727 14.6629 40.2727 23.1593 40.2179C31.5277 40.1813 31.8566 40.1813 32.423 40.5285C32.7519 40.7295 33.1356 41.0767 33.2818 41.3142C33.4828 41.6248 35.7668 54.1409 35.7668 54.8901C35.7668 54.9449 36.7534 54.9814 37.9776 54.9814H40.1885L40.0789 54.1044C39.8231 52.1493 38.3248 36.6549 38.3248 36.0519C38.3248 35.6865 38.7451 34.2978 39.2567 32.9275C40.2433 30.2598 41.0656 27.7931 42.0157 24.4676L42.6187 22.3664L45.0853 22.275C47.8444 22.1654 48.5204 21.9461 49.0138 20.9777C49.7081 19.6439 48.8676 18.7486 44.7199 16.3915C43.1851 15.5145 41.8512 14.7653 41.7599 14.7471C41.6503 14.7105 41.9426 14.1441 42.4177 13.4681C42.8745 12.8103 43.6602 11.4764 44.1718 10.508C45.2498 8.44333 45.3412 7.69419 44.6103 7.12776C43.5505 6.30553 42.8745 6.72578 41.8147 8.84531C40.9925 10.4715 39.6221 12.6093 39.3115 12.7189C38.9643 12.8285 36.1505 9.70408 36.1322 9.21074C36.1322 9.10111 36.6438 8.53469 37.265 7.93172C39.5307 5.72084 41.431 3.05316 41.431 2.10303C41.431 1.51834 40.6819 0.714381 40.152 0.714381C39.4759 0.714381 39.0922 1.06154 38.2152 2.37711C37.3929 3.65613 34.9628 6.37862 34.6522 6.37862C34.4329 6.37862 33.7751 4.14947 33.5376 2.63291C33.2818 0.915371 33.0808 0.440305 32.5509 0.184501C31.8566 -0.126118 31.4912 -0.0530315 30.9248 0.458577ZM42.2167 17.3782C42.3811 17.5792 42.5273 17.9081 42.5273 18.0908C42.5273 18.5841 41.8878 19.1688 41.3396 19.1688C40.7915 19.1688 40.152 18.5841 40.152 18.0725C40.152 17.8533 40.353 17.4878 40.6088 17.232C41.1387 16.7022 41.6685 16.757 42.2167 17.3782Z" fill="black"/>
<path d="M28.0926 42.2828C28.0926 42.4655 27.179 50.9254 26.7588 54.5249C26.7222 54.872 26.8501 54.8903 28.586 54.9451C30.2304 54.9817 30.4497 54.9634 30.541 54.6711C30.5776 54.4883 30.9247 52.8987 31.2902 51.1446C31.6373 49.3905 32.021 47.5999 32.1124 47.1796C32.222 46.7594 32.2951 46.0651 32.2951 45.6265C32.2768 44.4389 31.8383 42.3559 31.546 42.1732C31.3998 42.0818 30.5776 42.0087 29.7005 42.0087C28.4215 42.0087 28.0926 42.0636 28.0926 42.2828Z" fill="black"/>
<path d="M13.8955 42.7762C13.6945 43.0137 13.0185 44.0187 12.3789 45.0054L11.2461 46.8325L11.5384 47.8375C11.7029 48.4039 12.2693 50.2128 12.7992 51.8755L13.7676 54.8904L15.6496 54.9452L17.5316 55L17.4037 54.397C17.3306 54.0681 16.6545 51.2543 15.9237 48.1664C15.1745 45.0602 14.5716 42.5021 14.5716 42.4473C14.5716 42.2463 14.2244 42.4108 13.8955 42.7762Z" fill="black"/>
</svg>
