<svg width="51" height="50" viewBox="0 0 51 50" fill="none" xmlns="http://www.w3.org/2000/svg">
<path d="M17.4472 17.4345L0.066339 34.8684L0.0265356 37.8536L0 40.8521H3.43636H6.87272L6.92579 43.8109C6.9656 46.6502 6.97886 46.7828 7.31056 47.486C8.06682 49.1047 9.20785 49.8875 10.9592 49.9804C11.9145 50.0334 12.1268 49.9936 12.8565 49.6752C13.7852 49.2506 14.6078 48.4413 15.0324 47.5126C15.2978 46.9421 15.3243 46.6369 15.3641 43.8639L15.4039 40.8521H16.4653H17.5135V43.5455C17.5135 45.6153 17.5666 46.3848 17.7125 46.8359C18.1902 48.229 19.4639 49.1312 20.9631 49.118C21.4408 49.118 22.0378 49.0251 22.3032 48.919C23.0329 48.6005 23.7626 47.8841 24.0943 47.1543C24.3995 46.5308 24.4128 46.345 24.4128 43.6649V40.8521H37.2958H50.1788L50.1125 36.0359C50.0461 31.1003 49.94 29.6408 49.343 26.4566C47.6049 17.1028 43.054 8.25315 36.5661 1.60598C35.7037 0.717034 34.9474 -0.0126946 34.9076 0.000573203C34.8678 0.013841 27.0132 7.85511 17.4472 17.4345ZM35.2127 3.72883C35.2525 3.90131 35.4648 4.14013 35.6904 4.25954C35.9159 4.37895 36.2211 4.69737 36.367 4.96273C36.5263 5.21482 36.6987 5.4271 36.7518 5.4271C36.8978 5.4271 39.0073 8.16027 39.9759 9.59319C40.6525 10.6015 40.7321 10.7873 40.5464 10.8934C40.029 11.1853 40.4933 12.061 41.024 11.7824C41.1965 11.6895 41.3027 11.7293 41.4751 11.9814C41.5813 12.1671 41.6476 12.3794 41.5946 12.4458C41.4884 12.6315 41.7538 13.1224 41.9661 13.1224C42.0589 13.1224 42.4437 13.7327 42.8152 14.489C43.4786 15.8291 43.4919 15.8556 43.2 15.9883C42.855 16.1342 42.8285 16.6782 43.1469 16.8905C43.3194 16.9966 43.452 16.9966 43.6378 16.8772C43.8501 16.7445 43.9032 16.7711 44.0358 17.0497C44.1154 17.2354 44.1818 17.5008 44.1818 17.66C44.1818 17.8192 44.2614 18.0448 44.3675 18.1509C44.5533 18.3499 45.1105 19.7033 45.1105 19.9421C45.1105 20.0084 45.0176 19.9819 44.9115 19.889C44.5931 19.6237 44.1818 19.8492 44.1818 20.287C44.1818 20.9372 45.084 20.9504 45.1238 20.3003C45.1238 20.1809 45.2167 20.287 45.3228 20.5391C45.4422 20.7912 45.4953 21.1362 45.4422 21.3219C45.3891 21.5475 45.4422 21.7332 45.6147 21.9322C45.7606 22.0782 45.9597 22.5293 46.0791 22.9008C46.2781 23.604 46.2781 23.604 45.9729 23.604C45.5882 23.604 45.3361 23.9091 45.4422 24.2541C45.5484 24.5858 45.8535 24.7052 46.1852 24.5327C46.4904 24.3603 46.4638 24.3072 46.8353 26.0585C47.0742 27.2394 47.0874 27.3986 46.9017 27.5313C46.6098 27.7435 46.6629 28.115 47.0344 28.46C47.2466 28.659 47.3661 28.9111 47.3661 29.1632C47.3661 29.3755 47.4059 29.6408 47.4457 29.747C47.4987 29.8929 47.4191 29.9593 47.2201 29.9991C46.5434 30.0919 46.57 30.9676 47.2466 30.9676C47.5518 30.9676 47.5651 31.0207 47.6049 31.8698C47.6447 32.7322 47.6314 32.7588 47.3793 32.5996C47.1803 32.4801 47.0742 32.4801 46.9017 32.6261C46.424 33.0241 46.968 33.7804 47.4987 33.4487C47.7508 33.2895 47.7641 33.316 47.7641 34.3642C47.7641 35.2929 47.7375 35.4256 47.5783 35.2797C47.4722 35.2 47.2466 35.147 47.0742 35.1735C46.8353 35.2 46.769 35.2929 46.769 35.6113C46.769 35.9298 46.8353 36.0227 47.0742 36.0492C47.2466 36.0757 47.4722 36.0227 47.5783 35.943C47.7375 35.7971 47.7641 35.9298 47.7641 36.8851C47.7641 37.7475 47.7243 37.9465 47.6049 37.8271C47.512 37.7342 47.313 37.6679 47.1405 37.6679C46.9017 37.6679 46.8088 37.7607 46.7557 38.0659C46.6761 38.4507 46.6496 38.4639 45.8933 38.4639C45.1503 38.4639 45.1238 38.4507 45.084 38.0924C45.0442 37.7873 44.9778 37.7342 44.6462 37.7342C44.3145 37.7342 44.2481 37.7873 44.2083 38.0924C44.1685 38.4507 44.142 38.4639 43.3857 38.4639C42.6958 38.4639 42.6029 38.4374 42.5631 38.1853C42.4702 37.5352 41.5813 37.5352 41.6078 38.1853C41.6211 38.4374 41.5415 38.4639 40.7985 38.4639C40.0555 38.4639 39.9759 38.4374 39.9892 38.1853C40.0024 37.8005 39.6177 37.5484 39.2992 37.7475C39.1798 37.8403 39.0737 38.0261 39.0869 38.1853C39.1002 38.4374 39.0206 38.4639 38.2511 38.4639C37.7336 38.4639 37.4285 38.4109 37.4815 38.3312C37.6275 38.0924 37.2825 37.6679 36.9376 37.6679C36.6855 37.6679 36.5926 37.7475 36.5395 38.0659C36.4599 38.4507 36.4334 38.4639 35.6638 38.4639C35.0005 38.4639 34.881 38.4241 34.9209 38.2516C34.9474 38.1057 35.2127 37.9598 35.6506 37.8536C36.0353 37.7607 36.6457 37.5219 37.0172 37.3362C37.6275 37.031 37.7071 37.0177 37.8928 37.2035C38.2511 37.5617 38.742 37.3494 38.742 36.8453C38.742 36.6462 38.8614 36.6064 39.538 36.6064C40.228 36.6064 40.3341 36.633 40.3341 36.8585C40.3341 37.2035 40.6658 37.4423 40.9975 37.3362C41.17 37.2831 41.2629 37.1371 41.2629 36.9249C41.2629 36.6197 41.3027 36.6064 42.0589 36.6064C42.7356 36.6064 42.855 36.6462 42.855 36.8453C42.855 37.1504 43.1071 37.4025 43.4122 37.4025C43.6643 37.4025 43.9695 36.9381 43.8501 36.7391C43.8103 36.6595 43.8899 36.6064 44.0358 36.6064C44.2216 36.6064 44.3145 36.5268 44.3145 36.3543C44.3145 36.1686 44.4206 36.0757 44.686 36.0492C44.9513 36.0227 45.0575 35.9298 45.084 35.691C45.1371 35.3195 44.8054 34.9878 44.5002 35.1072C44.3543 35.1602 44.3145 35.001 44.3145 34.2846C44.3145 33.7273 44.3675 33.4354 44.4471 33.4885C44.7125 33.6477 45.1105 33.4089 45.1105 33.1037C45.1105 32.719 44.8054 32.4403 44.4737 32.5465C44.2614 32.6261 44.2216 32.4801 44.0756 30.9809C43.9828 30.0787 43.8235 28.8713 43.7307 28.3008C43.5715 27.4118 43.5715 27.2261 43.7307 26.974C43.9562 26.6423 43.8634 26.2974 43.5184 26.1912C43.3459 26.1381 43.2265 25.8861 43.1071 25.3553C43.0275 24.944 42.9213 24.546 42.8948 24.4929C42.855 24.4266 42.9479 24.4399 43.0938 24.5195C43.6113 24.7981 44.0491 24.3603 43.7837 23.8561C43.6113 23.5509 43.2132 23.5244 42.9744 23.8163C42.8152 24.002 42.7887 24.002 42.7091 23.7765C42.656 23.6438 42.6029 23.3386 42.6029 23.0865C42.5896 22.8345 42.51 22.5293 42.4039 22.4232C42.2447 22.2374 41.7936 21.0433 41.7936 20.8178C41.7936 20.7647 41.9263 20.7381 42.0722 20.7381C42.457 20.7514 42.7091 20.3666 42.51 20.0482C42.2978 19.7298 41.913 19.69 41.7007 19.9686C41.4619 20.287 41.3557 20.1278 41.3159 19.3981C41.2894 18.9735 41.1965 18.7082 41.024 18.5755C40.8781 18.4561 40.4933 17.7794 40.1484 17.0497L39.538 15.7495L39.8167 15.5239C40.029 15.3514 40.082 15.2187 40.0024 14.9932C39.9228 14.7278 39.8432 14.7013 39.4584 14.7544C38.9543 14.834 38.742 14.6084 38.742 13.9981C38.742 13.7858 38.6226 13.5735 38.4103 13.4409C38.2245 13.3214 37.8796 12.8836 37.6275 12.4723C37.3754 12.061 36.7783 11.1853 36.2874 10.5352C35.5444 9.51359 35.4516 9.34111 35.6771 9.3013C36.3538 9.19516 36.367 8.34602 35.6904 8.34602C35.4118 8.34602 35.2924 8.42563 35.1995 8.67772L35.0933 9.00941L34.7749 8.53177C34.4697 8.09393 34.4697 8.04086 34.6688 7.93472C34.7882 7.85511 34.8943 7.65609 34.8943 7.48361C34.8943 7.07231 34.2707 6.86003 34.0319 7.19172C33.8992 7.37747 33.8462 7.37747 33.5941 7.12538C33.3553 6.87329 33.342 6.82022 33.5145 6.55487C33.886 5.98435 33.2624 5.44037 32.7582 5.90474C32.5725 6.07723 32.5061 6.09049 32.5061 5.94455C32.5061 5.73226 34.7616 3.43693 34.9739 3.43693C35.0668 3.43693 35.1597 3.56961 35.2127 3.72883ZM31.8693 8.83693C37.853 15.7362 41.1833 23.8163 41.8466 33.117L41.9263 34.2182H40.3076C38.3439 34.2315 37.8398 34.3244 36.2874 35.0541C35.1464 35.5848 35.0403 35.6113 33.8329 35.6113C32.6521 35.6113 32.4928 35.5715 31.4447 35.1072C29.7862 34.3509 29.1892 34.2182 27.4643 34.2182C25.7793 34.2182 24.4791 34.4438 23.6034 34.8816C22.8472 35.2664 22.5818 35.5052 22.2766 36.1023C22.0378 36.5534 22.0245 36.9514 22.0245 41.343C22.0113 45.0315 21.9715 46.146 21.8388 46.3185C21.5867 46.6502 21.0162 46.8359 20.658 46.7032C19.968 46.4379 19.968 46.4777 19.9017 41.1175L19.8354 36.1155L19.4771 35.5715C18.9066 34.7224 18.084 34.3111 16.797 34.2448C15.5233 34.1784 14.8334 34.3376 14.0771 34.8949C13.0157 35.6512 13.0024 35.7308 13.0024 41.29C13.0024 45.5091 12.9759 46.2521 12.7902 46.6369C12.1002 48.0831 9.85798 47.8575 9.42014 46.3052C9.34053 46.0266 9.28746 43.7047 9.28746 40.8256C9.28746 37.2831 9.24766 35.7175 9.12825 35.4787C8.78328 34.7091 7.36363 34.2182 5.4796 34.2182C4.80294 34.2182 4.2457 34.1784 4.2457 34.1121C4.2457 34.059 8.63734 29.6276 13.9975 24.2674L23.7361 14.5288L24.3066 14.8472C25.1823 15.3514 26.4029 15.3116 27.2786 14.7809C27.6766 14.5288 28.0747 14.1308 28.3268 13.7195C28.6717 13.1755 28.7248 12.9499 28.7248 12.207C28.7115 11.5568 28.6319 11.1721 28.4064 10.7475L28.1012 10.1637L29.4014 8.86346C30.1179 8.13374 30.715 7.54995 30.7282 7.54995C30.7415 7.54995 31.2589 8.13374 31.8693 8.83693ZM4.51105 36.8453C4.51105 37.1504 4.76314 37.4025 5.0683 37.4025C5.32039 37.4025 5.62555 36.9381 5.50614 36.7391C5.45307 36.6595 5.63882 36.6064 5.95724 36.6064C6.84619 36.6064 6.89926 36.6595 6.88599 37.6546C6.87272 38.2649 6.84619 38.4109 6.77985 38.1322C6.71351 37.8005 6.6339 37.7342 6.30221 37.7342C5.97051 37.7342 5.90417 37.7873 5.86437 38.0924C5.82456 38.4507 5.79803 38.4639 5.04176 38.4639C4.35184 38.4639 4.25896 38.4374 4.21916 38.1853C4.12629 37.5352 3.23734 37.5352 3.26388 38.1853C3.26388 38.4109 3.19754 38.4639 2.82604 38.4639C2.40147 38.4639 2.3882 38.4507 2.3882 37.9465C2.3882 37.5352 2.44128 37.4025 2.65356 37.3362C2.87911 37.2566 2.98526 37.031 2.93218 36.6993C2.93218 36.6462 3.27715 36.6064 3.71498 36.6064C4.39164 36.6064 4.51105 36.6462 4.51105 36.8453ZM17.3543 37.0443C17.4472 37.2831 17.5135 37.7077 17.5135 37.973C17.5135 38.3711 17.4604 38.4639 17.2614 38.4639C17.0757 38.4639 16.9828 38.3578 16.9562 38.0924C16.9164 37.7873 16.8501 37.7342 16.5184 37.7342C16.1867 37.7342 16.1204 37.7873 16.0806 38.0924C16.0408 38.3843 15.9612 38.4639 15.7091 38.4639C15.4437 38.4639 15.3906 38.3976 15.3906 38.0394C15.3906 37.8138 15.4968 37.3892 15.6295 37.1239C15.8418 36.633 15.8816 36.6197 16.5184 36.6064C17.1685 36.6064 17.2083 36.633 17.3543 37.0443ZM27.5307 36.7391C27.4113 36.9381 27.7164 37.4025 27.9685 37.4025C28.2737 37.4025 28.5258 37.1504 28.5258 36.832C28.5258 36.5136 28.8973 36.5932 30.0516 37.1371C30.4894 37.3362 30.967 37.5484 31.1263 37.5883C31.3385 37.6546 31.4049 37.774 31.3916 38.0659C31.3783 38.4639 31.3783 38.4639 30.5557 38.4639C29.9322 38.4639 29.7464 38.4241 29.7995 38.2914C29.826 38.1986 29.7729 38.0128 29.6801 37.8801C29.4147 37.5086 28.7911 37.6944 28.7911 38.1322C28.7911 38.4507 28.7513 38.4639 28.0083 38.4639C27.2388 38.4639 27.2123 38.4507 27.1725 38.0924C27.1327 37.7873 27.0663 37.7342 26.7346 37.7342C26.4029 37.7342 26.3366 37.7873 26.2968 38.0924C26.257 38.4507 26.2304 38.4639 25.4609 38.4639C24.7179 38.4639 24.6781 38.4507 24.6781 38.1455C24.6781 37.9598 24.625 37.774 24.5454 37.7342C24.3331 37.6015 24.3995 37.1504 24.6516 37.0177C24.8373 36.9249 24.9302 36.9514 25.0496 37.1504C25.3282 37.6015 26.0049 37.3892 26.0049 36.8453C26.0049 36.6462 26.1243 36.6064 26.8142 36.6064C27.3051 36.6064 27.5838 36.6595 27.5307 36.7391ZM33.3818 38.0659C33.8064 38.0659 33.9656 38.119 33.9656 38.2649C33.9656 38.4241 33.7931 38.4639 33.1695 38.4639C32.453 38.4639 32.3734 38.4374 32.3734 38.1853C32.3734 37.9863 32.4265 37.9332 32.5857 37.9863C32.7051 38.0261 33.0634 38.0659 33.3818 38.0659Z" fill="black"/>
<path d="M34.0188 4.68467C33.8596 5.09597 34.0188 5.36133 34.4301 5.36133C34.7883 5.36133 34.8281 5.32152 34.8281 4.96329C34.8281 4.6316 34.7751 4.56526 34.4566 4.52546C34.2311 4.49892 34.0719 4.55199 34.0188 4.68467Z" fill="black"/>
<path d="M35.3721 5.86472C35.0935 6.07701 35.1333 6.46177 35.465 6.67406C35.9559 6.97922 36.4866 6.20969 36.009 5.86472C35.8763 5.77185 35.7304 5.69224 35.6906 5.69224C35.6508 5.69224 35.5048 5.77185 35.3721 5.86472Z" fill="black"/>
<path d="M36.6454 7.17843C36.2739 7.54993 36.6984 8.20005 37.2026 8.00104C37.4812 7.89489 37.5741 7.57647 37.4149 7.27131C37.2557 6.99268 36.8842 6.93961 36.6454 7.17843Z" fill="black"/>
<path d="M37.9461 8.47897C37.5746 8.85047 37.8001 9.31484 38.3176 9.2485C38.5962 9.22197 38.6891 9.12909 38.7156 8.85047C38.7819 8.33302 38.3176 8.10747 37.9461 8.47897Z" fill="black"/>
<path d="M36.6455 9.69935C36.3403 10.0045 36.5526 10.6016 36.9639 10.6016C37.1497 10.6016 37.5477 10.2433 37.5477 10.0709C37.5477 9.89837 37.1497 9.54014 36.9639 9.54014C36.8843 9.54014 36.7384 9.60648 36.6455 9.69935Z" fill="black"/>
<path d="M39.1662 9.69935C38.8345 10.031 39.0734 10.6016 39.551 10.6016C39.9358 10.6016 40.1348 10.2433 39.9623 9.87183C39.8031 9.5136 39.4316 9.434 39.1662 9.69935Z" fill="black"/>
<path d="M37.8001 11.1454C37.6675 11.4107 37.6807 11.4771 37.9461 11.6893C38.3441 12.0078 38.782 11.7955 38.7156 11.2913C38.6626 10.8004 38.039 10.7075 37.8001 11.1454Z" fill="black"/>
<path d="M39.2064 12.2733C38.9543 12.5386 38.9941 12.8438 39.3125 13.0428C39.5779 13.2153 39.9759 13.0163 40.0422 12.6978C40.082 12.4855 39.7371 12.061 39.5381 12.061C39.4717 12.061 39.3258 12.1538 39.2064 12.2733Z" fill="black"/>
<path d="M40.4931 13.5072C40.2543 13.6531 40.3339 14.1838 40.6258 14.3563C40.9044 14.5421 41.2626 14.2635 41.2626 13.8522C41.2626 13.4541 40.8513 13.2684 40.4931 13.5072Z" fill="black"/>
<path d="M41.6476 14.9264C41.422 15.205 41.6476 15.5632 42.0987 15.6163C42.3773 15.6561 42.4702 15.5898 42.5365 15.3244C42.5763 15.1387 42.5763 14.9264 42.5232 14.86C42.3906 14.6478 41.8466 14.6876 41.6476 14.9264Z" fill="black"/>
<path d="M40.4933 16.0676C40.2146 16.3463 40.3075 16.8239 40.6525 16.9168C41.077 17.0229 41.2628 16.8902 41.2628 16.5187C41.2628 16.2003 41.0372 15.9084 40.7984 15.9084C40.7188 15.9084 40.5861 15.9748 40.4933 16.0676Z" fill="black"/>
<path d="M41.6479 17.5139C41.5285 17.7527 41.555 17.8456 41.7673 18.0579C41.9796 18.2702 42.0725 18.2967 42.3113 18.1773C42.6165 18.0048 42.6828 17.6466 42.4307 17.3945C42.1786 17.1424 41.8204 17.2087 41.6479 17.5139Z" fill="black"/>
<path d="M43.0672 18.602C42.5895 18.947 43.1203 19.7165 43.6244 19.4114C43.9296 19.2123 43.9163 18.8276 43.5714 18.6153C43.3458 18.4561 43.2662 18.4561 43.0672 18.602Z" fill="black"/>
<path d="M42.9876 21.2819C42.7223 21.6003 42.8815 21.9453 43.3061 21.9453C43.7837 21.9453 44.0491 21.6003 43.797 21.2952C43.5714 21.0298 43.1999 21.0166 42.9876 21.2819Z" fill="black"/>
<path d="M44.3411 22.4367C44.1421 22.6357 44.1288 23.1664 44.3279 23.2725C44.6065 23.4583 45.1107 23.2062 45.1107 22.901C45.1107 22.5826 44.8851 22.2774 44.6463 22.2774C44.5667 22.2774 44.434 22.3438 44.3411 22.4367Z" fill="black"/>
<path d="M44.2351 25.1163C44.0759 25.5276 44.2351 25.793 44.6464 25.793C45.0046 25.793 45.0444 25.7532 45.0444 25.3949C45.0444 25.0632 44.9914 24.9969 44.6729 24.9571C44.4474 24.9306 44.2882 24.9836 44.2351 25.1163Z" fill="black"/>
<path d="M45.5882 26.3242C45.3362 26.5896 45.3229 26.6692 45.5484 26.9743C45.8934 27.452 46.6629 26.9213 46.3578 26.4171C46.1588 26.1119 45.8536 26.0721 45.5882 26.3242Z" fill="black"/>
<path d="M44.2746 27.5312C44.1153 27.6904 44.1684 28.2078 44.3674 28.367C44.6859 28.6324 45.137 28.314 45.0839 27.8761C45.0574 27.6108 44.9645 27.5046 44.7124 27.4781C44.5266 27.4516 44.3276 27.4781 44.2746 27.5312Z" fill="black"/>
<path d="M45.575 28.8586C45.3229 29.124 45.3627 29.4291 45.6812 29.6282C46.1721 29.9333 46.7028 29.1638 46.2251 28.8188C45.92 28.5933 45.8404 28.6065 45.575 28.8586Z" fill="black"/>
<path d="M44.3545 30.0648C44.1157 30.1577 44.1422 30.7017 44.3943 30.914C44.8056 31.2589 45.323 30.5823 44.9781 30.171C44.8056 29.972 44.6464 29.9454 44.3545 30.0648Z" fill="black"/>
<path d="M45.5088 31.4988C45.2435 31.8172 45.469 32.2285 45.9069 32.2285C46.1722 32.2285 46.3182 32.1489 46.3713 31.9632C46.4774 31.6315 46.2386 31.2998 45.9069 31.2998C45.7742 31.2998 45.6017 31.3926 45.5088 31.4988Z" fill="black"/>
<path d="M45.5083 34.0726C45.3491 34.3778 45.442 34.6962 45.7206 34.8024C46.0125 34.9085 46.4371 34.6564 46.4371 34.3778C46.4371 33.8338 45.7604 33.6215 45.5083 34.0726Z" fill="black"/>
<path d="M45.4952 36.6591C45.3758 36.9245 45.3758 37.0439 45.5085 37.2031C45.88 37.6542 46.6628 37.1367 46.3576 36.6326C46.1188 36.2611 45.6677 36.2743 45.4952 36.6591Z" fill="black"/>
<path d="M30.5825 14.1712C29.3752 14.4896 28.0616 15.5378 27.5309 16.6257C26.3501 19.0538 27.3319 21.9329 29.7201 23.0606C30.755 23.5383 32.4002 23.6046 33.4616 23.2066C34.5098 22.8218 35.4518 21.9329 35.9825 20.8449C36.3806 20.0488 36.4204 19.8498 36.4204 18.7619C36.4204 17.7402 36.3673 17.4616 36.0621 16.8115C35.3059 15.1796 33.7668 14.1712 31.9756 14.1049C31.4317 14.0783 30.8081 14.1049 30.5825 14.1712ZM32.639 16.3073C32.6921 16.4002 32.8115 16.4267 32.8911 16.3737C33.0901 16.2543 34.2842 17.4351 34.1648 17.6341C34.125 17.7004 34.1781 17.8597 34.2975 17.9791C34.4567 18.1515 34.4965 18.3771 34.4567 18.9343C34.4169 19.3456 34.324 19.7039 34.2444 19.7304C34.1648 19.757 34.0985 19.8896 34.0985 20.0356C34.0985 20.2081 34.0322 20.2611 33.8862 20.1948C33.7137 20.1284 33.6872 20.1683 33.7668 20.4071C33.8464 20.6857 33.8199 20.699 33.5545 20.6194C33.2626 20.5265 33.2494 20.5265 33.4351 20.752C33.6209 20.9776 33.6076 20.9909 33.3422 20.9245C33.1565 20.8714 33.0371 20.898 33.0371 20.9909C33.0371 21.2429 32.3604 21.5083 32.1481 21.3358C32.0287 21.2297 31.9756 21.2297 31.9756 21.3358C31.9756 21.5348 31.4847 21.5216 31.4051 21.3093C31.3521 21.1899 31.3123 21.1899 31.2194 21.3093C31.1265 21.442 31.0204 21.442 30.7417 21.3093C30.5427 21.2297 30.3835 21.1103 30.3835 21.0439C30.3835 20.9909 30.2906 20.9511 30.1845 20.9511C30.0784 20.9511 29.9855 20.8582 29.9855 20.752C29.9855 20.6459 29.8926 20.553 29.7732 20.553C29.667 20.553 29.6007 20.4999 29.6538 20.4336C29.6936 20.354 29.6405 20.2611 29.5476 20.1948C29.4415 20.1417 29.2823 19.9427 29.1894 19.7702C29.0567 19.5181 29.0567 19.4385 29.2027 19.3589C29.3221 19.2793 29.3088 19.1997 29.1363 19.014C28.9108 18.8017 28.9108 18.7751 29.1231 18.6557C29.3088 18.5628 29.3088 18.5098 29.1894 18.4302C29.0435 18.3373 29.0567 18.2312 29.2292 17.8729C29.3486 17.6341 29.4548 17.4882 29.4548 17.5412C29.4548 17.6076 29.5211 17.6076 29.5874 17.5678C29.6936 17.5014 29.6936 17.4218 29.6007 17.3157C29.4946 17.1963 29.5476 17.0636 29.7865 16.838C29.9722 16.6656 30.1182 16.5992 30.1182 16.6788C30.1182 16.7717 30.1845 16.838 30.2641 16.838C30.3437 16.838 30.3702 16.7452 30.3304 16.6257C30.2774 16.4665 30.3039 16.4267 30.4498 16.4798C30.556 16.5329 30.6887 16.4798 30.7417 16.3869C30.8081 16.2941 30.9408 16.1746 31.0469 16.1348C31.3919 16.0154 32.5329 16.1348 32.639 16.3073Z" fill="black"/>
<path d="M21.8921 18.9998C21.4277 19.2253 21.043 20.0479 21.1491 20.6185C21.2685 21.2686 22.0115 21.8789 22.6882 21.8789C23.6965 21.8789 24.4661 20.7909 24.1476 19.8091C23.869 18.9865 22.7413 18.5752 21.8921 18.9998Z" fill="black"/>
<path d="M16.784 23.2455C15.842 23.564 15.1919 23.962 14.6081 24.5988C12.0474 27.3851 13.5334 31.79 17.2749 32.4799C19.3712 32.8647 21.4543 31.7369 22.3963 29.7335C22.7014 29.0834 22.7545 28.8047 22.7545 27.7831C22.7412 26.7482 22.6882 26.4829 22.3565 25.8062C21.5869 24.1875 20.0744 23.1925 18.3098 23.1128C17.7127 23.0863 17.1024 23.1526 16.784 23.2455ZM18.6282 25.2888C18.7078 25.4745 18.7476 25.4878 18.8272 25.3418C18.9732 25.1163 19.3049 25.2888 19.9417 25.8858C20.5255 26.4431 20.7643 26.8676 20.5255 26.9738C20.4194 27.0136 20.4326 27.0799 20.6051 27.1861C20.897 27.3718 20.9368 28.3802 20.6316 28.3802C20.4061 28.3802 20.3663 28.6057 20.5653 28.6721C20.7776 28.7384 20.0611 29.7467 19.5702 30.0917C19.2783 30.2907 19.0262 30.3571 18.8538 30.304C18.6946 30.2509 18.5751 30.2775 18.5751 30.3571C18.5751 30.5561 18.2169 30.5428 18.124 30.3305C18.0577 30.1979 18.0312 30.1979 17.9648 30.3305C17.925 30.4234 17.7658 30.503 17.6331 30.503C17.4739 30.503 17.4076 30.4367 17.4474 30.3703C17.5004 30.2775 17.4208 30.2509 17.2086 30.304C16.9299 30.3836 16.7575 30.2775 16.1869 29.7335C15.6032 29.163 15.5103 29.0037 15.5766 28.7251C15.6297 28.5261 15.6032 28.3802 15.5235 28.3802C15.4572 28.3802 15.3909 28.2873 15.3909 28.1811C15.3909 28.075 15.4572 27.9821 15.5235 27.9821C15.6032 27.9821 15.6562 27.9158 15.6562 27.8494C15.6562 27.7698 15.5766 27.7168 15.4705 27.7168C15.3511 27.7168 15.3113 27.6239 15.3511 27.4514C15.3909 27.3055 15.4705 27.1861 15.5368 27.1861C15.6032 27.1861 15.6164 27.0932 15.5766 26.987C15.4041 26.5359 16.8503 25.0499 17.182 25.3286C17.3014 25.4347 17.3678 25.4082 17.4341 25.2622C17.5403 24.9703 18.5221 24.9836 18.6282 25.2888Z" fill="black"/>
<path d="M25.8854 25.1427C24.0146 26.0715 23.6564 28.5658 25.1689 29.9987C26.4824 31.2459 28.8175 30.954 29.7596 29.415C30.5291 28.1678 30.3566 26.7481 29.335 25.7265C28.3399 24.7447 27.1193 24.5324 25.8854 25.1427Z" fill="black"/>
<path d="M35.2924 25.5803C33.5278 26.1641 32.4531 27.5705 32.4531 29.3086C32.4531 31.4845 34.1249 33.1562 36.2875 33.1562C40.3209 33.1562 41.6212 27.6899 37.9991 25.912C37.2428 25.5405 35.9028 25.3813 35.2924 25.5803ZM36.1548 27.4511C36.2212 27.4511 36.1946 27.3848 36.0885 27.3184C35.9426 27.2255 35.9956 27.1857 36.3141 27.1857C36.5529 27.1857 36.8182 27.2653 36.9111 27.3582C37.004 27.4644 37.1632 27.5174 37.2826 27.4909C37.3887 27.4644 37.6674 27.6236 37.8797 27.8624C38.2246 28.2339 38.2379 28.2737 37.9858 28.1941C37.6541 28.0879 37.4418 28.3268 37.6674 28.5523C37.7735 28.6585 37.8531 28.6585 37.9725 28.5391C38.0654 28.4462 38.1848 28.3798 38.2644 28.3798C38.3308 28.3798 38.344 28.4196 38.3042 28.4727C38.2512 28.5125 38.2777 28.6452 38.3706 28.7381C38.49 28.884 38.49 28.9636 38.3308 29.0565C38.1981 29.1361 38.1981 29.1759 38.3175 29.1759C38.3971 29.1759 38.4767 29.2821 38.4767 29.4015C38.4767 29.5739 38.4369 29.5872 38.3175 29.4678C38.2246 29.3749 38.1052 29.3086 38.0256 29.3086C37.9593 29.3086 38.0256 29.4147 38.1715 29.5341C38.344 29.6934 38.4104 29.8393 38.3308 29.972C38.2777 30.0781 38.1981 30.2771 38.1583 30.3965C38.1185 30.5292 38.0123 30.6088 37.9195 30.5823C37.8266 30.569 37.7868 30.569 37.8531 30.5956C38.0521 30.715 37.9327 30.9007 37.6674 30.8609C37.5082 30.8477 37.3622 30.914 37.3357 31.0069C37.3224 31.0997 37.3357 31.113 37.3755 31.0334C37.402 30.9671 37.4949 30.9007 37.5745 30.9007C37.6541 30.9007 37.6408 30.9803 37.548 31.0997C37.4551 31.2192 37.2959 31.2855 37.203 31.2457C37.1101 31.2059 37.0172 31.2324 36.9907 31.2988C36.9244 31.511 35.9824 31.5641 35.7966 31.3784C35.7037 31.2855 35.5445 31.2324 35.4516 31.2722C35.1863 31.3518 34.377 30.516 34.2443 30.0383C34.1779 29.7995 34.1514 29.4811 34.1647 29.2953C34.1779 29.1228 34.2045 28.8442 34.2177 28.685C34.231 28.34 35.2792 27.2786 35.518 27.3715C35.6109 27.4113 35.6905 27.3715 35.6905 27.2919C35.6905 27.1725 35.7303 27.1725 35.8497 27.2919C35.9426 27.3848 36.0752 27.4511 36.1548 27.4511Z" fill="black"/>
<path d="M34.6954 28.2476C34.5627 28.4599 34.7618 28.6589 35.0404 28.5793C35.319 28.4864 35.3986 28.712 35.1333 28.8181C35.0006 28.8712 35.0006 28.8977 35.12 28.8977C35.3986 28.9243 35.4517 28.6324 35.2129 28.367C34.9608 28.0884 34.8148 28.0486 34.6954 28.2476Z" fill="black"/>
<path d="M36.1413 28.2608C36.0087 28.4863 36.3138 28.7384 36.4996 28.5527C36.6588 28.3935 36.5526 28.1148 36.3536 28.1148C36.2873 28.1148 36.1944 28.1812 36.1413 28.2608Z" fill="black"/>
<path d="M35.1333 29.4023C35.3986 29.5084 35.319 29.734 35.0404 29.6411C34.7352 29.5482 34.5362 29.8003 34.7485 30.0126C34.8547 30.1187 34.9741 30.0922 35.1731 29.8799C35.4517 29.6013 35.4252 29.2961 35.12 29.3227C35.0006 29.3227 35.0006 29.3492 35.1333 29.4023Z" fill="black"/>
<path d="M36.1413 29.7198C36.0087 29.9453 36.3138 30.1974 36.4996 30.0117C36.6588 29.8524 36.5526 29.5738 36.3536 29.5738C36.2873 29.5738 36.1944 29.6402 36.1413 29.7198Z" fill="black"/>
<path d="M37.6008 29.7198C37.4681 29.9453 37.7733 30.1974 37.959 30.0117C38.1182 29.8524 38.0121 29.5738 37.8131 29.5738C37.7467 29.5738 37.6539 29.6402 37.6008 29.7198Z" fill="black"/>
<path d="M35.8763 30.9148C35.8365 30.9944 35.8896 31.1536 36.009 31.273C36.1417 31.4057 36.2213 31.4322 36.2213 31.3261C36.2213 31.2465 36.354 31.1802 36.5265 31.2067C36.8316 31.2332 36.951 30.8883 36.6459 30.8219C36.553 30.8087 36.5397 30.8219 36.6193 30.8617C36.8847 30.9811 36.752 31.1271 36.354 31.1271C35.9427 31.1271 35.8233 30.9811 36.1284 30.8617C36.2478 30.8087 36.2478 30.7821 36.1284 30.7821C36.0488 30.7689 35.9294 30.8352 35.8763 30.9148Z" fill="black"/>
<path d="M9.95084 31.0077C8.21276 31.8701 9.40686 34.5236 11.198 33.7674C11.7155 33.5551 12.2064 32.8784 12.2064 32.361C12.2064 31.6578 11.344 30.7689 10.654 30.7689C10.5214 30.7689 10.2029 30.875 9.95084 31.0077Z" fill="black"/>
<path d="M45.3226 41.5023C45.2828 41.5686 45.4022 41.6084 45.588 41.6084C45.84 41.6084 45.8798 41.5819 45.7604 41.5023C45.5216 41.3563 45.4155 41.3563 45.3226 41.5023Z" fill="black"/>
</svg>
