<svg width="28" height="37" viewBox="0 0 28 37" fill="none" xmlns="http://www.w3.org/2000/svg">
<path fill-rule="evenodd" clip-rule="evenodd" d="M15.9075 0.0175296C15.8917 0.0331205 15.8028 0.0517415 15.71 0.0589585C15.6171 0.0661204 15.5007 0.105125 15.4511 0.145618C15.3981 0.18903 15.3457 0.19812 15.3236 0.167709C15.2666 0.0897547 14.872 0.0707481 14.7853 0.141761C14.7414 0.177626 14.6956 0.182694 14.6775 0.153771C14.6287 0.0759818 14.35 0.145012 14.2115 0.269133C14.1099 0.360255 14.0816 0.366039 14.0562 0.300921C14.0301 0.233819 13.796 0.203133 13.6931 0.253267C13.6778 0.260814 13.6435 0.263073 13.617 0.258335C13.5905 0.253597 13.5382 0.291004 13.5008 0.341413C13.4448 0.416944 13.4111 0.421627 13.3094 0.367968C13.2387 0.33067 13.1331 0.320368 13.0623 0.343892C12.8809 0.404053 12.7984 0.421186 12.5195 0.456665C12.3812 0.474239 12.2429 0.507404 12.2121 0.530378C12.1814 0.553296 12.0742 0.565306 11.974 0.557042C11.8737 0.548778 11.7769 0.565471 11.759 0.594174C11.727 0.645134 11.4851 0.758788 11.3739 0.775095C11.3431 0.779557 11.2472 0.812888 11.1606 0.849138C11.0741 0.885333 10.9794 0.914972 10.95 0.914972C10.8638 0.914972 10.3529 1.19137 10.2807 1.27703C10.2443 1.32028 10.1712 1.35571 10.1183 1.35571C10.0653 1.35571 9.95116 1.41576 9.86453 1.48908C9.77791 1.56246 9.61053 1.66538 9.49261 1.71782C9.37463 1.77027 9.27812 1.8404 9.27812 1.87368C9.27812 1.93499 8.92553 2.23717 8.85394 2.23717C8.83248 2.23717 8.73686 2.3094 8.64135 2.39765C8.5459 2.48597 8.39132 2.62876 8.29787 2.71504C8.20443 2.80131 8.00475 2.97083 7.85414 3.0917C7.45936 3.40853 7.3221 3.53789 7.3221 3.59325C7.3221 3.62008 7.23408 3.71126 7.1265 3.79588C7.01892 3.8805 6.9309 3.9773 6.9309 4.01101C6.9309 4.08665 6.42261 4.82648 6.37064 4.82648C6.35002 4.82648 6.2886 4.93181 6.23411 5.06062C6.04789 5.50108 6.01146 5.57038 5.88443 5.72596C5.81451 5.81157 5.75729 5.91316 5.75729 5.95162C5.75729 5.99007 5.7223 6.09353 5.67955 6.18151C5.60561 6.33368 5.46405 6.65348 5.3648 6.89242C5.33965 6.95302 5.30561 7.1157 5.28918 7.25398C5.27275 7.39221 5.20552 7.62772 5.13974 7.77735C5.07391 7.92693 5.01065 8.09892 4.99902 8.15952C4.94157 8.45977 4.91592 8.5856 4.80996 9.08765C4.74698 9.38597 4.69545 9.713 4.69545 9.81437C4.69545 9.91568 4.66991 10.0142 4.63867 10.0332C4.60743 10.0523 4.59653 10.0912 4.61447 10.1198C4.63241 10.1484 4.64699 10.6859 4.64683 11.3142L4.6466 12.4567L4.81007 12.7872C4.89999 12.969 4.99701 13.155 5.02568 13.2004C5.21038 13.4935 5.32109 13.8238 5.39313 14.2964C5.46584 14.7737 5.46578 14.8912 5.39235 15.2996C5.34663 15.554 5.29371 16.0845 5.27471 16.4784C5.24235 17.1486 5.24922 17.2211 5.38184 17.6077C5.46556 17.8517 5.51245 18.0886 5.49635 18.1862C5.47506 18.3152 5.48244 18.3334 5.52994 18.2688C5.56616 18.2197 5.57582 18.0969 5.5538 17.9658C5.53341 17.8446 5.50854 17.5719 5.49848 17.3598C5.48847 17.1477 5.47338 16.8417 5.46506 16.6797C5.45673 16.5178 5.46517 16.361 5.48383 16.3312C5.50245 16.3014 5.49602 16.1627 5.46958 16.023C5.4341 15.836 5.43991 15.7576 5.49155 15.7259C5.54335 15.6939 5.54593 15.6578 5.50138 15.5873C5.45371 15.5119 5.48769 15.3991 5.66362 15.0486C5.78596 14.8047 5.90712 14.5627 5.93277 14.5107C6.03258 14.3085 6.10361 13.9254 6.11965 13.5034C6.16302 12.3609 6.18096 12.1966 6.26943 12.1328C6.31777 12.098 6.37606 11.983 6.39886 11.8774C6.42166 11.7718 6.47246 11.6482 6.51175 11.6028C6.55104 11.5573 6.60055 11.4333 6.6219 11.3273C6.68064 11.0349 6.78 10.7764 6.83365 10.7764C6.86003 10.7764 6.86205 10.7454 6.83813 10.7075C6.81421 10.6697 6.80197 10.5829 6.81085 10.5147C6.8198 10.4465 6.80018 10.3907 6.76726 10.3907C6.73429 10.3907 6.70735 10.3412 6.70735 10.2806C6.70735 10.22 6.6822 10.1704 6.65147 10.1704C6.62073 10.1704 6.59558 10.1332 6.59558 10.0877C6.59558 10.0423 6.57172 10.0051 6.54254 10.0051C6.4785 10.0051 6.50868 9.20533 6.57647 9.10523C6.60234 9.06705 6.57228 9.09272 6.50963 9.16236C6.37924 9.30725 6.31615 9.32311 6.31615 9.21084C6.31615 9.16792 6.28647 9.12308 6.2502 9.11112C6.21164 9.09845 6.20024 9.04848 6.22276 8.99064C6.24579 8.93147 6.29491 8.90458 6.34527 8.92364C6.41272 8.94915 6.42133 8.92579 6.38897 8.80536C6.36678 8.72289 6.3518 8.59337 6.35566 8.51762C6.35952 8.44187 6.32626 8.33984 6.28172 8.29097C6.2032 8.2047 6.20438 8.01392 6.28614 7.55352C6.30229 7.46261 6.33152 7.25189 6.35113 7.08524C6.37075 6.91858 6.42345 6.74064 6.46827 6.68979C6.51399 6.63795 6.53472 6.55057 6.51549 6.49096C6.47213 6.3561 6.52969 6.20377 6.62403 6.20377C6.66387 6.20377 6.72272 6.1294 6.75486 6.0385C6.78699 5.94759 6.84629 5.87322 6.88658 5.87322C6.97365 5.87322 7.11487 5.66833 7.07341 5.60222C7.03105 5.53468 7.20686 5.21212 7.286 5.21212C7.32311 5.21212 7.38218 5.13709 7.41733 5.04541C7.45243 4.95374 7.51334 4.88559 7.55269 4.89391C7.59203 4.90229 7.62562 4.87193 7.6273 4.82648C7.63428 4.63702 7.86543 4.30118 8.27915 3.8794C8.5212 3.63264 8.71926 3.40743 8.71926 3.379C8.71926 3.35052 8.75569 3.34099 8.80024 3.35785C8.84897 3.37625 8.87093 3.36198 8.85534 3.32204C8.82997 3.25686 8.93006 3.18833 9.2362 3.0614C9.3207 3.02636 9.38989 2.97479 9.38989 2.94681C9.38989 2.91882 9.44969 2.86902 9.52284 2.83618C9.61466 2.79497 9.64719 2.74418 9.62808 2.67212C9.60773 2.59543 9.62998 2.56772 9.71185 2.56772C9.77316 2.56772 9.85458 2.53053 9.89287 2.48508C9.93115 2.43963 9.99709 2.40245 10.0394 2.40245C10.0818 2.40245 10.1164 2.37766 10.1164 2.34736C10.1164 2.31705 10.1888 2.29226 10.2773 2.29226C10.3657 2.29226 10.4708 2.25337 10.5109 2.20577C10.5509 2.15823 10.6314 2.13162 10.6897 2.14671C10.7585 2.1644 10.7866 2.15018 10.7695 2.10633C10.755 2.06903 10.7755 1.96271 10.815 1.86993C10.8846 1.70697 10.8966 1.70223 11.1733 1.72846C11.4184 1.75165 11.4548 1.74294 11.4257 1.66813C11.3878 1.57095 11.6166 1.48473 11.7641 1.54054C11.8135 1.55921 11.8718 1.52666 11.9078 1.46027C11.9541 1.37499 11.9861 1.36303 12.043 1.40959C12.0842 1.4433 12.1826 1.4546 12.2627 1.43476C12.3631 1.40992 12.4077 1.42088 12.4077 1.47046C12.4077 1.5136 12.4384 1.50076 12.4848 1.43823C12.5584 1.33896 12.5661 1.33868 12.6605 1.43173C12.7148 1.48528 12.7745 1.50688 12.7931 1.47972C12.8529 1.39234 13.0597 1.3189 13.2794 1.30695C13.3439 1.30348 13.4242 1.24486 13.458 1.17666L13.5193 1.0527L13.5568 1.17666C13.5954 1.30403 13.7042 1.35422 13.6792 1.23307C13.6715 1.19588 13.7217 1.15699 13.7909 1.14658C13.8792 1.1333 13.9167 1.15534 13.9167 1.22057C13.9167 1.28635 13.9493 1.30508 14.0284 1.28469C14.0898 1.26883 14.155 1.27951 14.1731 1.30844C14.1933 1.34067 14.2357 1.33681 14.2825 1.29852C14.3245 1.26414 14.3851 1.25202 14.4172 1.27158C14.499 1.32138 14.4901 1.46589 14.4053 1.46589C14.3556 1.46589 14.3416 1.54247 14.3573 1.72757C14.3696 1.87147 14.3908 1.9583 14.4043 1.92039C14.4179 1.88255 14.4638 1.85153 14.5064 1.85153C14.5558 1.85153 14.5708 1.8182 14.5479 1.75931C14.5194 1.68598 14.534 1.67551 14.6195 1.70807C14.6786 1.7306 14.7962 1.76283 14.8807 1.77964C15.0422 1.81175 15.0944 1.90662 14.9506 1.90662C14.8277 1.90662 14.8483 1.99918 14.9786 2.03278C15.0454 2.04997 15.1096 2.02804 15.1378 1.97846C15.19 1.88635 15.4047 1.90558 15.3856 2.00066C15.3787 2.03477 15.4209 2.04837 15.4834 2.03229C15.61 1.99967 15.6333 2.11751 15.5234 2.23425C15.4662 2.29496 15.4722 2.30201 15.5559 2.27282C15.6122 2.2532 15.668 2.23717 15.6799 2.23717C15.6918 2.23717 15.6861 2.19751 15.6672 2.14897C15.6483 2.10049 15.668 2.03884 15.7108 2.01207C15.8157 1.94662 15.8517 1.94954 15.9386 2.03058C15.9792 2.06848 16.0625 2.09944 16.1237 2.09944C16.1952 2.09944 16.2667 2.16594 16.3241 2.28576C16.4017 2.44773 16.4035 2.5004 16.3378 2.68848C16.282 2.84803 16.2781 2.9294 16.3231 2.99799C16.3793 3.08382 16.3817 3.08349 16.3534 2.99402C16.3245 2.90257 16.3638 2.76748 16.5071 2.46542C16.5595 2.35474 16.5493 2.32008 16.4376 2.23095C16.33 2.145 16.319 2.11167 16.3759 2.04402C16.4141 1.99874 16.4973 1.96171 16.5609 1.96171C16.6744 1.96171 16.6745 1.96034 16.568 1.88321C16.4636 1.80762 16.4656 1.80239 16.6225 1.74333C16.7445 1.69744 16.7957 1.69816 16.8258 1.74625C16.848 1.78162 16.8924 1.79457 16.9244 1.77506C17.017 1.71865 17.0721 1.86167 16.9835 1.92877C16.8972 1.99422 16.8925 2.04628 16.9596 2.19657C17.0132 2.31672 16.8925 2.47456 16.7796 2.43187C16.7243 2.41093 16.7088 2.42762 16.7309 2.48448C16.7488 2.53026 16.7369 2.56772 16.7046 2.56772C16.5814 2.56772 16.6999 2.70573 16.8279 2.7114C17.1468 2.72556 17.1699 2.73333 17.1378 2.81563C17.1191 2.86389 17.137 2.89827 17.1809 2.89827C17.2223 2.89827 17.2888 2.93706 17.3287 2.98443C17.3979 3.06669 17.4782 3.06492 17.7868 2.97457C17.8628 2.95232 17.8846 2.97876 17.8846 3.0933C17.8846 3.20723 17.8638 3.23273 17.7929 3.2059C17.7425 3.18684 17.6527 3.1864 17.5934 3.20497C17.4899 3.23736 17.4896 3.24155 17.5872 3.31184C17.6564 3.3617 17.7102 3.36738 17.7562 3.32969C17.7934 3.29928 17.8529 3.29212 17.8884 3.31377C17.9239 3.33542 17.974 3.31967 17.9996 3.27879C18.0252 3.23791 18.0633 3.22127 18.0841 3.24182C18.105 3.26237 18.0684 3.36875 18.0029 3.47822C17.8858 3.6738 17.8857 3.67666 17.996 3.64212C18.0853 3.61419 18.1095 3.63297 18.1146 3.73473C18.1204 3.8475 18.1243 3.84954 18.1486 3.75219C18.1637 3.69159 18.2016 3.61105 18.2328 3.57314C18.2716 3.52599 18.2689 3.47976 18.224 3.42655C18.1819 3.37641 18.1784 3.33675 18.2144 3.31482C18.2453 3.29598 18.2859 3.36363 18.3055 3.46687C18.3357 3.62515 18.3824 3.67071 18.6184 3.77236C18.7711 3.83802 18.8823 3.91356 18.8656 3.94016C18.849 3.96677 18.8745 4.00335 18.9223 4.02148C18.9702 4.03961 18.9931 4.08048 18.9731 4.11233C18.9082 4.21584 19.0668 4.34046 19.2164 4.30344C19.3027 4.28212 19.3732 4.29633 19.4032 4.34123C19.4413 4.39803 19.4637 4.39291 19.5091 4.31688C19.5795 4.1991 19.7847 4.18879 19.7847 4.30311C19.7847 4.34856 19.7533 4.38597 19.7149 4.38619C19.6765 4.38641 19.6151 4.4502 19.5785 4.52794C19.5214 4.64919 19.5234 4.65988 19.5925 4.60336C19.6588 4.54915 19.673 4.56105 19.673 4.67101C19.673 4.74439 19.6456 4.83138 19.6122 4.86433C19.5684 4.90746 19.5686 4.93468 19.6126 4.96151C19.6462 4.98195 19.6885 4.96085 19.7065 4.91446C19.7524 4.79662 20.1108 4.81171 20.1145 4.93165C20.116 4.97985 20.1241 5.07874 20.1326 5.15146C20.1526 5.32302 20.0326 5.36494 19.9893 5.20154C19.962 5.0988 19.9432 5.08927 19.8844 5.14832C19.8258 5.20711 19.8409 5.24275 19.9667 5.34258C20.0871 5.438 20.106 5.47937 20.0534 5.53127C20.0007 5.58322 20.0083 5.59776 20.0879 5.59776C20.1727 5.59776 20.1839 5.62729 20.1544 5.77279C20.1349 5.86903 20.1345 5.93239 20.1536 5.9136C20.1925 5.87526 20.4182 6.12708 20.4694 6.26591C20.4876 6.31528 20.473 6.38475 20.437 6.42039C20.3869 6.46997 20.4043 6.51008 20.5112 6.59117C20.5881 6.64946 20.6795 6.69772 20.7143 6.69838C20.7936 6.69993 20.8448 6.94382 20.7856 7.03819C20.7517 7.09229 20.7134 7.08358 20.6188 7.0004L20.4959 6.89242L20.5931 7.07951C20.6682 7.22418 20.7018 7.24913 20.7415 7.18969C20.7837 7.12639 20.8074 7.13168 20.8756 7.21971C20.9947 7.3737 20.9777 7.43253 20.825 7.39474C20.7362 7.37276 20.6662 7.3927 20.6154 7.45446C20.5714 7.5079 20.5671 7.5306 20.6052 7.50812C20.6986 7.45286 20.7571 7.57087 20.681 7.66122C20.6374 7.71301 20.6359 7.74771 20.6762 7.77223C20.7817 7.83652 20.738 7.91558 20.5532 7.99474C20.4532 8.03755 20.403 8.07352 20.4414 8.07474C20.5237 8.07727 20.5375 8.29725 20.4554 8.29725C20.4246 8.29725 20.3995 8.26007 20.3995 8.21461C20.3995 8.16916 20.3618 8.13198 20.3156 8.13198C20.2695 8.13198 20.2318 8.15677 20.2318 8.18707C20.2318 8.27158 20.4449 8.46253 20.5392 8.46253C20.5853 8.46253 20.623 8.49971 20.623 8.54516C20.623 8.59062 20.5858 8.6278 20.5403 8.6278C20.4587 8.6278 20.3629 8.86536 20.3904 8.99973C20.3981 9.03768 20.3457 9.09509 20.2738 9.12732C20.1827 9.16825 20.1392 9.23871 20.1298 9.36052C20.1223 9.45649 20.0957 9.55527 20.0706 9.58006C20.0045 9.64523 20.0654 9.89888 20.1554 9.93287C20.2464 9.9673 20.2589 10.1704 20.17 10.1704C20.1359 10.1704 20.1223 10.2068 20.1395 10.2512C20.1569 10.2957 20.1498 10.345 20.124 10.3608C20.0498 10.406 19.9467 10.2491 19.9854 10.1498C20.0046 10.1003 19.9925 10.0602 19.9584 10.0602C19.8674 10.0602 19.883 10.256 19.9803 10.3356C20.0264 10.3734 20.0642 10.4508 20.0642 10.5076C20.0642 10.5645 20.1019 10.6111 20.148 10.6111C20.2011 10.6111 20.2318 10.6638 20.2318 10.7548C20.2318 10.8823 20.2153 10.8944 20.0853 10.8623C19.9478 10.8282 19.9413 10.8354 19.978 10.9797C19.9996 11.0642 20.0399 11.1473 20.0677 11.1642C20.0956 11.1812 20.1337 11.2708 20.1525 11.3634C20.1779 11.4885 20.1637 11.5405 20.0975 11.5656C19.9915 11.6056 19.9789 11.748 20.0781 11.7847C20.1265 11.8026 20.1137 11.8373 20.0362 11.8977C19.9255 11.984 19.9257 11.9849 20.0502 11.9866C20.2006 11.9887 20.2075 12.028 20.0814 12.1653C19.9932 12.2614 19.9931 12.2788 20.0792 12.4225C20.1494 12.5395 20.156 12.592 20.1067 12.6406C20.0575 12.6892 20.0714 12.7046 20.1648 12.7046C20.3116 12.7046 20.3273 12.788 20.1903 12.8398C20.101 12.8736 20.1028 12.8845 20.211 12.9697C20.276 13.0208 20.3449 13.1456 20.364 13.247C20.3925 13.3982 20.3798 13.4361 20.2929 13.4586C20.1567 13.4937 20.1133 13.7173 20.2149 13.8602C20.2699 13.9377 20.346 13.9672 20.4663 13.9577C20.5649 13.95 20.6494 13.9736 20.6635 14.013C20.68 14.0591 20.6267 14.0822 20.5019 14.0827C20.173 14.0842 20.1144 14.2029 20.3715 14.3466C20.4754 14.4047 20.4724 14.4092 20.3277 14.4108C20.242 14.4117 20.11 14.3724 20.0343 14.3235C19.9572 14.2737 19.8965 14.2602 19.8965 14.2927C19.8965 14.3247 19.922 14.3664 19.9533 14.3854C19.9845 14.4045 19.9949 14.4443 19.9762 14.474C19.9552 14.5075 19.9103 14.5017 19.8577 14.4586C19.8072 14.4174 19.6391 14.3929 19.4435 14.3982C19.2623 14.4032 19.1141 14.3842 19.1141 14.3561C19.1141 14.3255 19.0625 14.3243 18.9855 14.3531C18.8442 14.4061 18.5711 14.3722 18.5232 14.2957C18.5064 14.269 18.444 14.2471 18.3843 14.2471C18.3231 14.2471 18.2758 14.2095 18.2758 14.1609C18.2758 14.0915 18.2242 14.0793 18.0103 14.0983C17.8643 14.1112 17.6993 14.0987 17.6435 14.0705C17.5778 14.0372 17.5165 14.0401 17.4691 14.0788C17.429 14.1117 17.2374 14.1523 17.0433 14.1691C16.8492 14.1859 16.6259 14.2307 16.5471 14.2686C16.4682 14.3066 16.2276 14.3431 16.0124 14.3498C15.6962 14.3597 15.6065 14.3827 15.5445 14.4699C15.5023 14.5292 15.4332 14.5777 15.3908 14.5777C15.3339 14.5777 15.3138 14.6646 15.3138 14.9114C15.3138 15.256 15.2368 15.6719 15.1338 15.883C15.1002 15.9518 15.087 16.1714 15.1031 16.3938C15.1187 16.6083 15.1159 16.7933 15.0969 16.8049C15.0196 16.8521 15.0821 17.4345 15.1947 17.7179C15.2971 17.9754 15.3071 18.0623 15.261 18.2964C15.2312 18.4479 15.1938 18.6958 15.1779 18.8473C15.1299 19.3054 15.04 19.7743 14.9668 19.9491C14.8893 20.134 14.7533 20.3072 14.6856 20.3072C14.661 20.3072 14.5346 20.375 14.4046 20.4578C14.203 20.5862 14.1104 20.608 13.777 20.6062C13.4245 20.6042 13.3526 20.5836 13.0506 20.3986C12.8662 20.2857 12.6261 20.1669 12.517 20.1347C12.3407 20.0827 12.2897 20.0933 12.06 20.2301C11.8208 20.3725 11.8084 20.3906 11.895 20.4704C11.9465 20.5178 12.0164 20.6059 12.0504 20.6661C12.1022 20.7579 12.1811 20.7781 12.5418 20.7917C12.9562 20.8072 12.9787 20.8152 13.1786 21.0159C13.2925 21.1304 13.4291 21.2399 13.4822 21.2592C13.5381 21.2796 13.6057 21.4004 13.6431 21.5467C13.7045 21.7873 13.7122 21.7947 13.8107 21.7069C13.8974 21.6295 13.9384 21.6255 14.0689 21.6818C14.2853 21.7752 14.6586 22.2267 14.6247 22.3542C14.6051 22.4281 14.6284 22.4558 14.7103 22.4558C14.7959 22.4558 14.8129 22.4788 14.7815 22.5522C14.7353 22.6598 14.7405 22.9391 14.7901 23.0182C14.8078 23.0464 14.8758 23.089 14.9411 23.1129C15.0324 23.1462 15.0736 23.1294 15.1185 23.0407C15.1836 22.9119 15.3276 22.866 15.4708 22.9284C15.5228 22.9511 15.5905 22.9718 15.6212 22.9744C15.6519 22.977 15.6771 23.0164 15.6771 23.0618C15.6771 23.1138 15.6356 23.1377 15.5653 23.1264C15.4634 23.11 15.4618 23.1148 15.5467 23.1815C15.5978 23.2217 15.6485 23.3042 15.6591 23.3647C15.6706 23.4294 15.7224 23.4748 15.7848 23.4749C15.8516 23.4749 15.9106 23.5327 15.9437 23.6304C15.9873 23.7587 15.9749 23.8085 15.8731 23.9153C15.7728 24.0206 15.7116 24.039 15.5458 24.0141C15.4335 23.9973 15.2994 23.9472 15.2475 23.9029C15.1956 23.8585 15.1282 23.8376 15.0976 23.8562C15.067 23.8748 15.0087 23.8432 14.9681 23.7859C14.8605 23.6345 14.3145 23.5845 13.9143 23.6895C13.5413 23.7872 13.2877 23.7737 13.0041 23.641C12.7775 23.535 12.683 23.5448 11.8489 23.7596C11.3478 23.8887 11.0962 23.9019 10.8748 23.8107C10.7343 23.7529 10.6307 23.7424 10.5391 23.7767C10.3957 23.8304 10.2964 23.9433 10.3925 23.9433C10.5137 23.9433 10.4475 24.1623 10.304 24.2364C10.2125 24.2837 10.1801 24.3272 10.2186 24.3506C10.2529 24.3715 10.3433 24.3483 10.4195 24.2991C10.557 24.2103 11.0072 24.1762 11.1217 24.2458C11.1544 24.2658 11.5935 24.2908 12.0975 24.3013C12.6014 24.3118 13.0597 24.3442 13.1159 24.3734C13.2392 24.4373 13.6925 24.5011 14.1603 24.5203C14.3491 24.528 14.5834 24.5377 14.6811 24.5418C14.7788 24.5459 14.8922 24.5823 14.9331 24.6226C14.974 24.6629 15.0364 24.6864 15.0717 24.6748C15.107 24.6632 15.1516 24.6787 15.1708 24.7093C15.1899 24.7398 15.2426 24.7509 15.2877 24.7338C15.3328 24.7168 15.3697 24.7317 15.3697 24.767C15.3697 24.8023 15.3926 24.8173 15.4206 24.8003C15.507 24.7476 15.6491 24.8314 15.6491 24.9349C15.6491 25.0297 15.5063 25.1297 15.404 25.1064C15.3767 25.1003 15.2989 25.1466 15.2311 25.2094C15.1614 25.2739 15.0698 25.3093 15.0208 25.2908C14.973 25.2727 14.9173 25.2844 14.897 25.3168C14.8504 25.3912 14.4464 25.3937 14.3076 25.3204C14.2376 25.2835 14.1914 25.2835 14.1683 25.3204C14.1492 25.3508 14.0129 25.3757 13.8653 25.3757C13.4553 25.3757 13.0784 25.4387 13.0784 25.5073C13.0784 25.5412 13.0043 25.6377 12.9138 25.722C12.7893 25.8378 12.7153 25.8667 12.6099 25.8406C12.4791 25.8083 12.4695 25.8208 12.4531 26.0451C12.4374 26.2608 12.4193 26.2876 12.268 26.3192C12.1758 26.3385 12.1444 26.3572 12.1982 26.3608C12.252 26.3644 12.296 26.3885 12.296 26.4144C12.296 26.4403 12.3588 26.5283 12.4357 26.61C12.5125 26.6917 12.5754 26.74 12.5754 26.7173C12.5754 26.6944 12.6056 26.7056 12.6425 26.7419C12.6794 26.7783 12.7677 26.808 12.8389 26.808C12.9099 26.808 13.0147 26.8367 13.0716 26.8717C13.1466 26.918 13.2377 26.9197 13.4034 26.8783C13.6503 26.8165 13.6931 26.8309 13.6931 26.9755C13.6931 27.0532 13.7387 27.0664 13.9567 27.052C14.1017 27.0425 14.2503 27.0593 14.287 27.0893C14.3315 27.1256 14.3659 27.1246 14.39 27.0862C14.4426 27.0024 14.4949 27.0143 14.6334 27.1414C14.701 27.2035 14.7824 27.2386 14.814 27.2193C14.8457 27.2 14.9019 27.2073 14.9391 27.2355C15.0721 27.3367 15.1981 27.3579 15.1653 27.2735C15.1461 27.2242 15.1686 27.1937 15.224 27.1937C15.2734 27.1937 15.3138 27.2201 15.3138 27.2525C15.3138 27.2854 15.3611 27.2965 15.4209 27.2778C15.5631 27.2333 15.6224 27.3366 15.4966 27.4098C15.405 27.4631 15.4067 27.4699 15.5183 27.5009C15.5845 27.5193 15.6514 27.5818 15.6668 27.6398C15.6851 27.7091 15.7251 27.7335 15.7837 27.7114C15.923 27.6587 15.8944 27.8706 15.7434 28.0105C15.613 28.1311 15.4452 28.1775 15.5094 28.0752C15.5284 28.0449 15.5047 28.0201 15.4568 28.0201C15.4089 28.0201 15.3697 28.0531 15.3697 28.0935C15.3697 28.1834 15.1335 28.1755 15.1028 28.0846C15.0908 28.0491 15.0564 28.0201 15.0265 28.0201C14.9965 28.0201 14.9857 28.042 15.0025 28.0689C15.0194 28.0958 14.9957 28.1484 14.95 28.1858C14.9042 28.2233 14.8671 28.2819 14.8676 28.316C14.8681 28.3502 14.8918 28.3417 14.9204 28.2971C14.9491 28.2525 14.9881 28.2316 15.0073 28.2505C15.0528 28.2952 14.9127 28.5159 14.8387 28.5159C14.8074 28.5159 14.7093 28.5822 14.6206 28.6632L14.4594 28.8106L14.5839 28.856C14.7214 28.9061 14.7132 29.0389 14.5724 29.04C14.4506 29.0409 14.3917 29.1096 14.3917 29.2508C14.3917 29.3299 14.3636 29.3622 14.3079 29.3472C14.0865 29.2875 13.9428 29.3189 13.8895 29.4387C13.8116 29.6136 13.7599 29.5929 13.7174 29.3698C13.6972 29.2638 13.6554 29.177 13.6245 29.177C13.5936 29.177 13.5815 29.2266 13.5976 29.2872C13.6136 29.3478 13.604 29.3974 13.5761 29.3974C13.5483 29.3974 13.5255 29.3739 13.5255 29.3452C13.5255 29.2744 13.0611 29.2938 13.0085 29.3668C12.9475 29.4514 12.8501 29.2828 12.8889 29.1597C12.9167 29.0718 12.9069 29.0682 12.8074 29.1294C12.7453 29.1677 12.7086 29.2217 12.7259 29.2493C12.7432 29.2769 12.7251 29.3192 12.6855 29.3433C12.6077 29.3907 12.3519 29.2987 12.3519 29.2232C12.3519 29.1978 12.3302 29.177 12.3037 29.177C12.2773 29.177 12.2676 29.239 12.2823 29.3147C12.2979 29.3951 12.283 29.4524 12.2466 29.4524C12.2123 29.4524 12.1842 29.3764 12.1842 29.2835C12.1842 29.1337 12.1699 29.1188 12.0585 29.1525C11.9893 29.1733 11.8995 29.2167 11.859 29.2487C11.8036 29.2925 11.752 29.2668 11.6514 29.1456C11.5778 29.0568 11.5167 28.9656 11.5156 28.9428C11.5145 28.9201 11.489 28.9015 11.4591 28.9015C11.424 28.9015 11.4246 28.9535 11.4606 29.0469C11.5209 29.2033 11.481 29.3034 11.4061 29.1839C11.3737 29.1321 11.3432 29.1603 11.3002 29.2819C11.2132 29.5281 11.1539 29.4929 11.0917 29.158C11.0396 28.8778 11.0424 28.8648 11.1495 28.8907C11.2114 28.9056 11.2434 28.8978 11.2207 28.8734C11.1979 28.849 11.2019 28.802 11.2297 28.7689C11.2648 28.727 11.205 28.7077 11.0331 28.7055C10.8669 28.7033 10.8045 28.7204 10.8424 28.7578C10.9249 28.8391 10.9113 29.0431 10.8183 29.1191C10.7741 29.1553 10.7301 29.237 10.7205 29.3006C10.711 29.3642 10.6716 29.4266 10.633 29.4391C10.5542 29.4647 10.5661 29.3469 10.6667 29.1045C10.7503 28.9034 10.7481 28.8833 10.6468 28.9216C10.6005 28.9392 10.499 28.9297 10.4212 28.9005L10.2799 28.8476L10.4033 28.683C10.496 28.5594 10.5575 28.5261 10.6507 28.5492C10.719 28.5661 10.7916 28.5531 10.8122 28.5203C10.8489 28.4619 10.7469 28.4351 10.5495 28.4514C10.4957 28.4558 10.4517 28.4234 10.4517 28.3793C10.4517 28.3351 10.4188 28.3114 10.3786 28.3266C10.2729 28.3666 10.0406 28.1508 10.0801 28.0493C10.0981 28.0029 10.0885 27.965 10.0588 27.965C10.029 27.965 10.0046 27.9169 10.0046 27.858C10.0046 27.7992 9.98502 27.7391 9.96105 27.7245C9.90824 27.6924 9.91371 27.9488 9.96697 28.0013C9.98771 28.0217 10.0046 28.0591 10.0046 28.0844C10.0046 28.1664 9.89555 28.1329 9.77461 28.0137C9.68067 27.9211 9.61109 27.903 9.43628 27.9262C9.17177 27.9612 9.17328 27.881 9.43974 27.7401C9.66301 27.6221 9.69944 27.5894 9.60321 27.5935C9.31059 27.6061 9.22944 27.4971 9.48445 27.434C9.63076 27.3978 9.63154 27.3955 9.51234 27.3521C9.44494 27.3275 9.35038 27.3223 9.30221 27.3405C9.23028 27.3677 9.21776 27.3354 9.2324 27.1602C9.2509 26.9382 9.4175 26.8204 9.45505 27.0027C9.47154 27.0828 9.48903 27.0803 9.60461 26.9812C9.67659 26.9195 9.72018 26.8446 9.70151 26.8148C9.68279 26.785 9.69151 26.746 9.72085 26.7281C9.75019 26.7101 9.80211 26.7395 9.8362 26.7931C9.888 26.8746 9.89158 26.868 9.85799 26.753C9.83592 26.6772 9.82061 26.5713 9.82402 26.5176C9.82742 26.4639 9.80658 26.4344 9.77768 26.452C9.74885 26.4696 9.72521 26.5168 9.72521 26.5569C9.72521 26.5971 9.67653 26.6424 9.61707 26.6578C9.53894 26.6779 9.51748 26.718 9.53972 26.8019C9.57152 26.9218 9.48104 26.9639 9.41571 26.8597C9.39554 26.8275 9.31232 26.7761 9.23078 26.7455C9.09414 26.694 9.09017 26.6841 9.18032 26.6188C9.23414 26.5799 9.27812 26.5074 9.27812 26.4577C9.27812 26.408 9.3221 26.3635 9.37592 26.3589C9.42974 26.3543 9.50105 26.3477 9.53447 26.3443C9.56794 26.3408 9.63886 26.295 9.69218 26.2425C9.77321 26.1626 9.77523 26.1469 9.70453 26.1469C9.59136 26.1469 9.52636 26.0347 9.61003 25.9838C9.65915 25.9538 9.64468 25.8863 9.55526 25.7282C9.39855 25.4511 9.40912 25.4576 9.33585 25.5926C9.286 25.6844 9.2908 25.7265 9.35854 25.7933C9.41577 25.8497 9.43572 25.9435 9.41862 26.0752C9.38849 26.3074 9.38235 26.3155 9.22855 26.3269C9.13874 26.3336 9.11046 26.3724 9.11046 26.4892C9.11046 26.5737 9.08531 26.6428 9.05457 26.6428C9.02384 26.6428 8.99869 26.5947 8.99869 26.5358C8.99869 26.477 8.97466 26.4142 8.94526 26.3963C8.91586 26.3784 8.90608 26.3271 8.92352 26.2823C8.94431 26.2289 8.92889 26.2107 8.87876 26.2297C8.83455 26.2464 8.77889 26.206 8.74681 26.1339C8.70702 26.0445 8.65353 26.0144 8.55774 26.0278C8.44754 26.043 8.43127 26.0286 8.46492 25.9451C8.48733 25.8894 8.51661 25.7875 8.52997 25.7186C8.55132 25.6085 8.53712 25.5975 8.41322 25.6281C8.30335 25.6554 8.27217 25.6421 8.27217 25.5684C8.27217 25.4898 8.25462 25.495 8.16945 25.5987C8.1106 25.6703 8.03873 25.7067 8.00117 25.6838C7.89622 25.6199 7.944 25.1002 8.05482 25.1002C8.08484 25.1002 8.10199 25.1436 8.093 25.1966C8.07383 25.3092 8.2768 25.3345 8.31408 25.2241C8.32889 25.1804 8.30508 25.1675 8.24892 25.1887C8.14603 25.2276 8.13144 25.1508 8.22433 25.0592C8.27233 25.0119 8.2549 25.0043 8.15447 25.0288C7.99413 25.0679 7.85291 25.2023 7.80021 25.3661C7.7745 25.446 7.78523 25.4858 7.83251 25.4858C7.88756 25.4858 7.8884 25.5006 7.83625 25.552C7.79937 25.5883 7.76919 25.7103 7.76919 25.8232C7.76919 25.9786 7.81071 26.0692 7.94076 26.1974C8.06366 26.3186 8.10222 26.3978 8.07668 26.4771C8.05136 26.5557 8.06639 26.5877 8.12871 26.5877C8.17688 26.5877 8.21628 26.5629 8.21628 26.5326C8.21628 26.5023 8.25015 26.4775 8.2915 26.4775C8.34253 26.4775 8.36287 26.5397 8.35482 26.6708C8.34828 26.7771 8.32073 26.8576 8.29357 26.8498C8.26641 26.842 8.25048 26.817 8.25819 26.7943C8.2853 26.7142 8.15648 26.7541 8.12474 26.8356C8.10702 26.881 8.05751 26.9182 8.0147 26.9182C7.91997 26.9182 7.91802 26.8907 8.0019 26.7355C8.06002 26.6279 8.05734 26.623 7.97664 26.6887C7.90036 26.7506 7.86442 26.7463 7.74566 26.6611C7.66832 26.6056 7.60427 26.5292 7.60326 26.4913C7.60108 26.4044 7.67105 26.4028 7.75706 26.4876C7.79345 26.5234 7.83614 26.54 7.85201 26.5244C7.86783 26.5088 7.81166 26.462 7.72716 26.4203C7.64272 26.3786 7.53318 26.3118 7.48378 26.2719C7.40884 26.2112 7.38235 26.2131 7.32327 26.2833C7.23564 26.3874 7.15444 26.3919 7.15444 26.2927C7.15444 26.1712 7.41878 25.9243 7.51144 25.9594C7.56929 25.9813 7.59281 25.9583 7.58723 25.8854C7.578 25.765 7.45321 25.7423 7.41007 25.8531C7.39436 25.8935 7.35804 25.9266 7.32937 25.9266C7.24537 25.9266 7.04323 25.5484 7.07866 25.4575C7.1018 25.3981 7.08537 25.3841 7.02093 25.4085C6.97141 25.4272 6.9309 25.4151 6.9309 25.3816C6.9309 25.348 6.86724 25.3206 6.78945 25.3206C6.61313 25.3206 6.54713 25.1748 6.68008 25.079C6.73429 25.0399 6.76816 24.977 6.75536 24.9392C6.74005 24.8939 6.68187 24.9199 6.58496 25.0155C6.49493 25.1043 6.42367 25.138 6.40137 25.1025C6.38137 25.0705 6.40428 25.0295 6.45234 25.0113C6.54875 24.9748 6.57323 24.8247 6.48275 24.8247C6.45039 24.8247 6.44044 24.7671 6.45972 24.6914C6.48286 24.6006 6.45435 24.5055 6.37041 24.3936C6.30257 24.3032 6.26233 24.2049 6.281 24.1751C6.29966 24.1454 6.27748 24.0904 6.2317 24.053C6.18593 24.0155 6.14849 23.9433 6.14849 23.8925C6.14849 23.8416 6.12172 23.7737 6.08903 23.7414C6.04695 23.6999 6.05471 23.658 6.11541 23.5981C6.18504 23.5294 6.18761 23.5023 6.12882 23.4542C6.07712 23.4119 6.03901 23.4121 5.99553 23.455C5.9098 23.5395 5.80479 23.4595 5.81608 23.3182C5.83838 23.0387 5.81463 22.9545 5.72303 22.9892C5.64518 23.0186 5.63735 22.9866 5.66563 22.7533C5.68363 22.6048 5.69794 22.4462 5.69754 22.4007C5.6971 22.3553 5.69822 22.2268 5.70012 22.1154C5.70464 21.8468 5.6126 21.7992 5.57147 22.0489C5.5291 22.3063 5.59332 23.3373 5.65172 23.3373C5.67659 23.3373 5.69352 23.4055 5.68938 23.4888C5.6777 23.7232 5.81446 24.3331 5.93143 24.5683C5.98933 24.6848 6.03672 24.8238 6.03672 24.8773C6.03672 24.9307 6.10875 25.1081 6.19678 25.2715C6.2848 25.4348 6.37595 25.6288 6.39936 25.7024C6.42272 25.7761 6.51415 25.9347 6.60257 26.055C6.69092 26.1753 6.76324 26.3195 6.76324 26.3756C6.76324 26.4317 6.78839 26.4775 6.81912 26.4775C6.84986 26.4775 6.87501 26.525 6.87501 26.5831C6.87501 26.6412 6.89597 26.6969 6.92151 26.7071C7.00869 26.7414 7.44315 27.5311 7.41487 27.6037C7.39939 27.6435 7.41297 27.702 7.44511 27.7336C7.48568 27.7736 7.45774 27.8363 7.35351 27.939C7.27102 28.0203 7.21139 28.0937 7.22089 28.1021C7.25923 28.1359 7.48976 28.0198 7.48976 27.9667C7.48976 27.9355 7.52748 27.9099 7.57359 27.9099C7.6857 27.9099 7.68005 27.9476 7.52229 28.2542C7.44818 28.3981 7.40844 28.5159 7.43398 28.5159C7.45952 28.5159 7.49104 28.4849 7.50395 28.447C7.52228 28.3933 7.54794 28.3948 7.62037 28.4537C7.73588 28.5477 7.73761 28.6185 7.62746 28.7384C7.54844 28.8245 7.55364 28.8296 7.69251 28.8035C7.81563 28.7803 7.83687 28.7918 7.80803 28.8658C7.78858 28.9157 7.79976 28.9566 7.8329 28.9566C7.86917 28.9566 7.87917 28.902 7.85799 28.8189C7.83871 28.7431 7.84609 28.6812 7.87437 28.6812C7.93076 28.6812 8.18409 29.061 8.18672 29.1494C8.18761 29.1797 8.2421 29.2541 8.30782 29.3147C8.37354 29.3753 8.44519 29.4831 8.46704 29.5543C8.50175 29.6674 8.49197 29.679 8.38947 29.647C8.30939 29.622 8.27217 29.6342 8.27217 29.6856C8.27217 29.7387 8.32789 29.7545 8.46168 29.7391C8.63889 29.7186 8.6556 29.731 8.72043 29.9292C8.75854 30.0457 8.81136 30.1681 8.83785 30.2012C8.86428 30.2344 8.86735 30.2798 8.84461 30.3022C8.82186 30.3246 8.85204 30.3781 8.91167 30.4211C9.01886 30.4983 8.97583 30.5272 8.78911 30.5033C8.69008 30.4906 8.7021 30.6462 8.80309 30.6844C8.84919 30.7018 8.88691 30.7533 8.88691 30.7987C8.88691 30.8496 8.85461 30.8692 8.80309 30.8497C8.69863 30.8101 8.69875 30.8274 8.80426 31.0358C8.90117 31.2274 9.08252 31.4064 9.02194 31.2507C9.00254 31.201 8.96426 31.1603 8.93682 31.1603C8.90938 31.1603 8.88691 31.1231 8.88691 31.0776C8.88691 30.9654 8.98013 30.9733 9.05089 31.0914C9.10364 31.1794 9.11174 31.177 9.14405 31.0639C9.18803 30.9096 9.21268 30.9109 9.40386 31.0768C9.58605 31.2348 9.59438 31.2705 9.44907 31.2705C9.38939 31.2705 9.32573 31.2942 9.30757 31.3231C9.28941 31.3521 9.24017 31.3629 9.19815 31.3469C9.15612 31.3311 9.10604 31.3431 9.08688 31.3737C9.04692 31.4375 9.31456 31.726 9.46713 31.7838C9.5286 31.807 9.55632 31.8553 9.53687 31.9052C9.51206 31.969 9.53447 31.9807 9.63462 31.9559C9.74164 31.9294 9.78037 31.9566 9.85419 32.1098C9.90343 32.2122 10.0083 32.33 10.0871 32.3716C10.1845 32.423 10.2122 32.4652 10.1734 32.5034C10.0801 32.5954 10.1065 32.6202 10.298 32.6202C10.3979 32.6202 10.4857 32.645 10.493 32.6753C10.5003 32.7056 10.4437 32.729 10.3672 32.7273C10.2693 32.7252 10.2282 32.7536 10.2282 32.8237C10.2282 32.8784 10.2024 32.9232 10.1708 32.9232C10.0871 32.9232 10.2628 33.2339 10.3694 33.2743C10.5153 33.3294 10.4026 33.4228 10.2387 33.3826C10.1039 33.3495 10.0963 33.355 10.1646 33.4367C10.2064 33.4869 10.2268 33.5634 10.2099 33.607C10.1896 33.659 10.2353 33.7054 10.3434 33.7425C10.4698 33.786 10.5076 33.8328 10.5076 33.946C10.5076 34.0731 10.4887 34.0894 10.3679 34.0666C10.1815 34.0316 10.1919 34.0588 10.4065 34.1682C10.5755 34.2543 10.5793 34.263 10.4796 34.3349C10.4218 34.3766 10.4029 34.4107 10.4378 34.4107C10.4726 34.4107 10.5166 34.3859 10.5356 34.3556C10.5911 34.267 10.8429 34.2895 10.8429 34.3831C10.8429 34.429 10.7932 34.4658 10.7312 34.4658C10.6697 34.4658 10.6194 34.4912 10.6194 34.5223C10.6194 34.5533 10.555 34.6029 10.4763 34.6323C10.3976 34.6618 10.3496 34.712 10.3695 34.7438C10.3947 34.7839 10.4285 34.7831 10.4797 34.7412C10.5311 34.6992 10.5646 34.6984 10.59 34.739C10.6101 34.7709 10.5898 34.811 10.5449 34.828C10.44 34.8676 10.5078 35.1525 10.6234 35.1573C10.6673 35.1592 10.7409 35.1769 10.787 35.1965C10.8332 35.2162 10.9444 35.2396 11.0342 35.2485C11.124 35.2573 11.2062 35.2907 11.2168 35.3225C11.2456 35.4092 10.8577 35.4034 10.6852 35.3147C10.5059 35.2225 10.3092 35.2068 10.4669 35.2972C10.5213 35.3285 10.5513 35.3773 10.5334 35.4057C10.4994 35.46 10.5672 35.4758 10.7677 35.4603C10.8339 35.4551 10.9039 35.4761 10.9232 35.5068C10.9425 35.5376 10.9952 35.5488 11.0403 35.5318C11.0915 35.5124 11.1224 35.5341 11.1224 35.5893C11.1224 35.6873 10.9238 35.7091 10.7902 35.6258C10.7336 35.5905 10.6792 35.6098 10.6085 35.6901C10.4871 35.8281 10.4832 35.8489 10.5858 35.81C10.7041 35.7653 10.7561 35.8971 10.6582 35.9936C10.5585 36.092 10.6173 36.3193 10.7726 36.4355C10.8358 36.4829 10.8468 36.5224 10.8073 36.5613C10.7322 36.6354 10.5635 36.5702 10.5635 36.467C10.5635 36.4124 10.5286 36.3975 10.455 36.4205C10.3865 36.4419 10.2575 36.3994 10.1057 36.3053C9.79982 36.1157 8.19393 34.5315 7.92142 34.1505C7.80825 33.9923 7.49574 33.6373 7.22698 33.3617C6.74949 32.8722 6.37203 32.4042 6.37203 32.3017C6.37203 32.2736 6.29966 32.1448 6.21119 32.0156C5.97558 31.6715 5.64551 31.0777 5.64551 30.998C5.64551 30.9274 5.63014 30.8913 5.28628 30.1537C5.17646 29.9182 5.08665 29.6442 5.08665 29.5449C5.08665 29.4456 5.05647 29.3345 5.01959 29.2982C4.96745 29.2468 4.96896 29.2321 5.02657 29.2321C5.07905 29.2321 5.09084 29.1839 5.06709 29.0668C5.04446 28.9553 5.05586 28.9013 5.10202 28.9007C5.15237 28.9 5.15344 28.8891 5.1061 28.8594C5.01769 28.8038 4.98773 28.374 5.07341 28.3913C5.11012 28.3987 5.1246 28.3686 5.1066 28.3224C5.08905 28.2773 5.05854 28.2404 5.03876 28.2405C5.01897 28.2405 5.00679 27.9987 5.01165 27.7033C5.01881 27.2664 5.03563 27.1688 5.10185 27.1806C5.16087 27.1911 5.17579 27.1569 5.15617 27.0558C5.14136 26.9793 5.10705 26.9031 5.08 26.8866C5.01512 26.8471 5.01635 26.6428 5.0814 26.6428C5.10929 26.6428 5.1189 26.5932 5.10286 26.5326C5.08676 26.472 5.05703 26.4224 5.03675 26.4224C5.01646 26.4224 5.00947 26.3232 5.02121 26.202C5.03289 26.0808 5.02065 25.9817 4.99399 25.9817C4.90234 25.9817 4.37148 26.3628 4.0337 26.6711C3.69218 26.9827 3.29773 27.6327 3.13136 28.1578C3.09297 28.279 3.02808 28.4525 2.98712 28.5434C2.94621 28.6343 2.78414 29.0367 2.62699 29.4375L2.34124 30.1663L2.05136 30.3091C1.89186 30.3876 1.50993 30.6198 1.20256 30.825C0.895186 31.0302 0.505379 31.2488 0.336323 31.3108L0.0289491 31.4235L0.0144747 34.2117L0 37H14H28V35.2493V33.4987L26.9545 32.9768C26.1499 32.5752 25.7152 32.3147 25.0683 31.8464C24.0757 31.1279 23.7167 30.9058 22.889 30.4981C22.3243 30.2199 22.261 30.173 22.1462 29.9472C21.9506 29.5625 21.6498 28.9043 21.5173 28.571C21.4509 28.4043 21.3626 28.1936 21.3208 28.1027C21.2791 28.0118 21.1661 27.7639 21.0696 27.5518L20.8942 27.1661L20.9563 26.5326C21.0189 25.8928 21.1561 25.2269 21.2453 25.1305C21.2719 25.1017 21.2937 25.0199 21.2937 24.9487C21.2937 24.8775 21.3284 24.7524 21.3709 24.6705C21.4135 24.5887 21.4667 24.3606 21.4893 24.1636C21.5118 23.9667 21.566 23.7366 21.6099 23.6525C21.6536 23.5682 21.6779 23.481 21.6638 23.4585C21.6497 23.436 21.6815 23.195 21.7345 22.9229L21.8308 22.4283L22.0512 22.363C22.1725 22.3272 22.4226 22.2563 22.607 22.2055C22.8722 22.1325 22.9948 22.059 23.1938 21.8534C23.5481 21.4873 24.0089 20.7297 24.2245 20.159C24.3253 19.8921 24.5627 19.3694 24.752 18.9974C25.3261 17.8694 25.4276 17.5715 25.4665 16.8999C25.497 16.3721 25.488 16.2845 25.3765 16.0293C25.1362 15.479 24.8139 15.3542 24.3743 15.641C24.0981 15.8212 23.8644 15.8398 23.8644 15.6817C23.8644 15.6222 23.9101 15.5293 23.966 15.4751C24.1141 15.3314 24.3052 14.9849 24.3645 14.7524C24.5393 14.0679 24.613 13.8185 24.6767 13.6962C24.7161 13.6205 24.7501 13.5337 24.7522 13.5034C24.7679 13.2733 24.8379 12.9409 24.8822 12.8861C24.9117 12.8495 24.9194 12.7934 24.8994 12.7614C24.8793 12.7294 24.904 12.6229 24.9541 12.5248C25.114 12.2123 25.1457 10.511 25.0116 9.4312C24.9705 9.10038 24.9487 8.79958 24.963 8.76278C24.9773 8.72592 24.9442 8.55034 24.8893 8.37256C24.8344 8.19478 24.7873 8.01215 24.7846 7.9667C24.7819 7.92125 24.7661 7.84688 24.7497 7.80143C24.6329 7.47986 24.5804 7.31519 24.5563 7.19542C24.541 7.11967 24.4923 7.00276 24.448 6.93566C24.4037 6.86856 24.3666 6.757 24.3657 6.68775C24.3647 6.6185 24.3021 6.43791 24.2265 6.28641C24.1508 6.13491 24.0887 5.96902 24.0885 5.91779C24.0882 5.86655 24.0628 5.80931 24.0321 5.79058C24.0013 5.77185 23.9762 5.71147 23.9762 5.65632C23.9762 5.60123 23.9426 5.52868 23.9016 5.49513C23.8605 5.46152 23.7928 5.33189 23.751 5.20705C23.7092 5.08221 23.6433 4.96806 23.6046 4.95341C23.5659 4.93881 23.4801 4.81662 23.414 4.68192C23.3479 4.54722 23.2649 4.4069 23.2297 4.3701C23.1945 4.33324 23.0962 4.19777 23.0113 4.06897C22.9264 3.94016 22.8321 3.83483 22.8018 3.83483C22.7715 3.83483 22.7467 3.78293 22.7467 3.71947C22.7467 3.65049 22.7018 3.59259 22.6349 3.57535C22.5734 3.55948 22.5232 3.51392 22.5232 3.47409C22.5232 3.3925 21.6583 2.51263 21.5782 2.51263C21.5497 2.51263 21.5182 2.49384 21.5079 2.47093C21.4682 2.38195 21.0212 2.0719 20.9327 2.0719C20.8814 2.0719 20.777 1.99885 20.7008 1.90954C20.6246 1.82029 20.5107 1.7311 20.4476 1.71138C20.3138 1.66951 19.8585 1.37372 19.8108 1.29769C19.7928 1.26899 19.7331 1.24552 19.678 1.24552C19.6229 1.24552 19.461 1.18432 19.3182 1.10945C19.1755 1.03463 19.0193 0.988244 18.9712 1.00642C18.9147 1.0278 18.8741 1.00268 18.8562 0.935191C18.8186 0.793551 18.5406 0.644748 18.3517 0.665187C18.2636 0.674718 18.1121 0.629653 17.9991 0.560237C17.7678 0.418321 17.3039 0.281694 17.2222 0.331442C17.1912 0.350393 17.1507 0.341744 17.1322 0.31227C17.1137 0.282796 17.0592 0.273596 17.0109 0.291831C16.9627 0.310121 16.9017 0.290619 16.8753 0.248584C16.8394 0.191289 16.8114 0.187928 16.7636 0.235031C16.7158 0.28219 16.6727 0.271227 16.5916 0.191289C16.532 0.132561 16.4612 0.0980736 16.4342 0.114546C16.4072 0.131018 16.3138 0.115703 16.2267 0.0804994C16.0229 -0.00175247 15.9431 -0.0175087 15.9075 0.0175296ZM15.5503 1.13699C15.5321 1.29202 15.4386 1.4108 15.335 1.4108C15.2312 1.4108 15.2378 1.27197 15.3495 1.10383C15.4586 0.939709 15.5714 0.95833 15.5503 1.13699ZM15.9845 1.13534C15.9845 1.16564 15.9593 1.19043 15.9286 1.19043C15.8978 1.19043 15.8727 1.16564 15.8727 1.13534C15.8727 1.10504 15.8978 1.08025 15.9286 1.08025C15.9593 1.08025 15.9845 1.10504 15.9845 1.13534ZM16.5433 1.30386C16.5433 1.3324 16.5182 1.35571 16.4874 1.35571C16.4567 1.35571 16.4316 1.31703 16.4316 1.26982C16.4316 1.2226 16.4567 1.19925 16.4874 1.21798C16.5182 1.23671 16.5433 1.27533 16.5433 1.30386ZM14.8008 1.36948C14.791 1.43768 14.7578 1.49343 14.727 1.49343C14.6963 1.49343 14.6631 1.43768 14.6533 1.36948C14.641 1.2842 14.664 1.24552 14.727 1.24552C14.7901 1.24552 14.813 1.2842 14.8008 1.36948ZM15.8381 1.5623C15.7888 1.76575 15.7676 1.79644 15.6771 1.79644C15.5355 1.79644 15.5273 1.6846 15.6588 1.54787C15.8288 1.37124 15.8834 1.37565 15.8381 1.5623ZM15.3138 1.54528C15.3138 1.63419 15.2347 1.70003 15.1857 1.65182C15.1421 1.60885 15.2022 1.46589 15.2639 1.46589C15.2914 1.46589 15.3138 1.50159 15.3138 1.54528ZM17.432 2.43809C17.4911 2.488 17.5264 2.56238 17.5104 2.60337C17.471 2.70457 17.3257 2.69818 17.3257 2.59527C17.3257 2.54982 17.3006 2.51263 17.2698 2.51263C17.2391 2.51263 17.214 2.47544 17.214 2.42999C17.214 2.32201 17.2981 2.3251 17.432 2.43809ZM17.3816 2.82021C17.3816 2.86819 17.3518 2.89767 17.3153 2.88566C17.2116 2.85161 17.1945 2.733 17.2932 2.733C17.3418 2.733 17.3816 2.77222 17.3816 2.82021ZM19.2818 4.05762C19.2818 4.08924 19.3178 4.10781 19.3619 4.09894C19.406 4.09001 19.45 4.10753 19.4597 4.13783C19.4774 4.1932 19.2018 4.2311 19.0731 4.191C18.9692 4.15866 19.0547 4.0001 19.176 4.0001C19.2341 4.0001 19.2818 4.026 19.2818 4.05762ZM19.8406 4.71955C19.8406 4.74808 19.8155 4.77139 19.7847 4.77139C19.754 4.77139 19.7288 4.73271 19.7288 4.6855C19.7288 4.63829 19.754 4.61493 19.7847 4.63366C19.8155 4.65239 19.8406 4.69101 19.8406 4.71955ZM20.7068 6.09359C20.7259 6.12389 20.7147 6.14868 20.6822 6.14868C20.6497 6.14868 20.623 6.12389 20.623 6.09359C20.623 6.06329 20.6341 6.0385 20.6477 6.0385C20.6612 6.0385 20.6878 6.06329 20.7068 6.09359ZM21.1539 6.53432C21.1729 6.56462 21.1492 6.58941 21.1013 6.58941C21.0535 6.58941 21.0142 6.56462 21.0142 6.53432C21.0142 6.50402 21.0379 6.47923 21.0668 6.47923C21.0958 6.47923 21.1349 6.50402 21.1539 6.53432ZM20.7348 8.18536C20.7348 8.3081 20.7139 8.34099 20.651 8.3172C20.5656 8.28486 20.5368 8.12515 20.6044 8.05854C20.6843 7.97976 20.7348 8.0289 20.7348 8.18536ZM20.2362 8.65992C20.2389 8.7241 20.2522 8.73716 20.27 8.69325C20.2861 8.65347 20.2841 8.60593 20.2656 8.58764C20.247 8.56935 20.2338 8.60185 20.2362 8.65992ZM20.335 11.0765C20.3473 11.1393 20.3272 11.1658 20.2791 11.15C20.2377 11.1365 20.1952 11.0811 20.1845 11.0272C20.1722 10.9643 20.1924 10.9378 20.2404 10.9537C20.2818 10.9672 20.3243 11.0225 20.335 11.0765ZM19.2746 12.5806C19.2051 12.668 19.2071 12.6699 19.2957 12.6015C19.3495 12.5599 19.3935 12.5164 19.3935 12.505C19.3935 12.4597 19.3476 12.4888 19.2746 12.5806ZM19.8255 12.5175C19.8031 12.5396 19.7847 12.5957 19.7847 12.6422C19.7847 12.7041 19.8013 12.7103 19.8469 12.6654C19.8811 12.6316 19.8995 12.5755 19.8877 12.5407C19.8759 12.5059 19.8479 12.4954 19.8255 12.5175ZM20.1759 13.2312C20.1759 13.2784 20.2015 13.3015 20.2327 13.2825C20.264 13.2634 20.2751 13.2248 20.2574 13.1966C20.2095 13.1202 20.1759 13.1344 20.1759 13.2312ZM3.49786 13.4349C3.42052 13.5631 3.3857 13.7382 3.37474 14.0543C3.35966 14.4886 3.36083 14.4929 3.45382 14.3431C3.50574 14.2596 3.59035 14.1781 3.64183 14.1619C3.69335 14.1458 3.80205 14.0466 3.88342 13.9414L4.03141 13.7502L3.87442 13.5208C3.78808 13.3947 3.69229 13.2835 3.66155 13.2738C3.63082 13.2642 3.55716 13.3367 3.49786 13.4349ZM9.53475 13.4617C9.49076 13.505 9.75729 13.6962 9.86174 13.6962C9.95876 13.6962 10.229 13.8493 10.2972 13.9429C10.3845 14.0628 10.3318 14.1333 10.1304 14.1661C10.0151 14.1848 9.66206 14.2852 9.3458 14.389C9.02959 14.4927 8.69008 14.5797 8.59133 14.5821C8.49264 14.5844 8.44335 14.5989 8.48174 14.6142C8.57898 14.6528 8.56892 14.7981 8.46084 14.9158C8.37472 15.0096 8.37924 15.0121 8.54852 14.9642C8.64672 14.9365 8.87725 14.9084 9.06089 14.9019C9.24448 14.8954 9.40794 14.8689 9.42409 14.8432C9.45494 14.794 9.81736 14.6328 9.89706 14.6328C9.9226 14.6328 9.99374 14.7447 10.0551 14.8815C10.1463 15.0847 10.2141 15.1502 10.4256 15.2396C10.8784 15.4309 11.1096 15.3678 11.3478 14.9879C11.4445 14.8337 11.501 14.7955 11.6137 14.8088C11.7557 14.8255 11.947 15.0648 11.9574 15.2388C11.9602 15.2842 11.9861 15.3584 12.0151 15.4036C12.0571 15.4691 12.0819 15.4718 12.1371 15.4174C12.243 15.313 12.3701 15.3315 12.3292 15.4454C12.3082 15.5039 12.3386 15.4876 12.4066 15.4041C12.5016 15.2873 12.5271 15.2789 12.5741 15.349C12.6313 15.4343 12.6515 15.3927 12.6342 15.225C12.6244 15.1293 12.6646 15.1184 13.0765 15.1054C13.1563 15.1029 13.2386 15.0535 13.2721 14.988C13.3038 14.9257 13.4443 14.7398 13.5842 14.5748C13.724 14.4097 13.8687 14.2053 13.9056 14.1205L13.9727 13.9662L13.6792 13.9688C13.159 13.9733 13.1343 13.9712 13.1343 13.922C13.1343 13.8954 13.0526 13.8602 12.9526 13.8439C12.5784 13.7828 12.4338 13.7362 12.3687 13.6556C12.3231 13.5993 12.2543 13.5844 12.1537 13.6093C12.0711 13.6297 11.9731 13.6191 11.9318 13.5852C11.8264 13.4991 11.0695 13.466 10.8834 13.5394C10.755 13.59 10.7093 13.5836 10.6179 13.5021C10.5228 13.4172 10.5076 13.4155 10.5076 13.4903C10.5076 13.6039 10.4005 13.6372 10.2325 13.5759C10.158 13.5487 10.0606 13.5403 10.0159 13.5572C9.97116 13.5741 9.90634 13.5663 9.8718 13.5399C9.78808 13.4758 9.57141 13.4255 9.53475 13.4617ZM9.12443 13.5689C9.17825 13.5828 9.26621 13.5828 9.32003 13.5689C9.37385 13.5551 9.32981 13.5437 9.22223 13.5437C9.11465 13.5437 9.07061 13.5551 9.12443 13.5689ZM20.4446 13.6453C20.4336 13.6778 20.4007 13.7045 20.3715 13.7045C20.3424 13.7045 20.3094 13.6778 20.2984 13.6453C20.2874 13.6127 20.3203 13.586 20.3715 13.586C20.4228 13.586 20.4556 13.6127 20.4446 13.6453ZM19.9524 14.1027C19.9524 14.1141 19.9907 14.1548 20.0375 14.1931C20.1086 14.2513 20.1169 14.2479 20.0874 14.1723C20.0573 14.0951 19.9524 14.0409 19.9524 14.1027ZM10.6194 14.4675C10.6194 14.4978 10.5942 14.5226 10.5635 14.5226C10.5328 14.5226 10.5076 14.4978 10.5076 14.4675C10.5076 14.4372 10.5328 14.4124 10.5635 14.4124C10.5942 14.4124 10.6194 14.4372 10.6194 14.4675ZM19.7568 14.5226C19.7758 14.5529 19.7647 14.5777 19.7321 14.5777C19.6996 14.5777 19.673 14.5529 19.673 14.5226C19.673 14.4923 19.684 14.4675 19.6976 14.4675C19.7112 14.4675 19.7378 14.4923 19.7568 14.5226ZM4.47548 15.6211C4.40898 15.6626 4.4078 15.686 4.46838 15.758C4.60905 15.9251 4.73943 15.8566 4.66152 15.6565C4.6228 15.557 4.58865 15.5505 4.47548 15.6211ZM17.831 15.9041C18.0032 16.2212 18.2484 16.3402 18.8108 16.3793C19.0968 16.3992 19.2816 16.4359 19.2813 16.4728C19.2807 16.563 19.02 16.6654 18.8818 16.6298C18.7992 16.6085 18.7739 16.6188 18.8013 16.6625C18.8233 16.6976 18.8775 16.7263 18.9218 16.7263C19.0131 16.7263 19.0255 16.8252 18.9491 16.9443C18.8864 17.0419 18.3167 17.1044 17.932 17.0558C17.6362 17.0183 17.5588 17.081 17.8287 17.1395C17.9209 17.1594 17.9974 17.2048 17.9987 17.2402C18.0014 17.3131 18.314 17.5226 18.5098 17.5828C18.5809 17.6047 18.6887 17.6564 18.7493 17.6978C18.8099 17.7392 18.9231 17.7734 19.0008 17.7738C19.0785 17.7743 19.1789 17.7977 19.224 17.8258C19.2766 17.8586 19.3333 17.8545 19.3822 17.8145C19.4391 17.7679 19.4851 17.7684 19.5631 17.8165C19.6328 17.8595 19.6795 17.8622 19.703 17.8247C19.7533 17.7445 20.2305 17.7796 20.3225 17.8703C20.4263 17.9726 20.4199 18.0094 20.2835 18.0934C20.1902 18.1508 20.1806 18.1805 20.2344 18.2444C20.2868 18.3065 20.2853 18.343 20.228 18.4111C20.1876 18.4591 20.1494 18.5397 20.1432 18.5902C20.137 18.6407 20.1142 18.7596 20.0924 18.8544C20.0686 18.9583 20.0764 19.0411 20.112 19.0628C20.1881 19.1092 20.1302 19.2605 20.0362 19.2605C19.939 19.2605 19.886 19.4108 19.9695 19.4497C20.02 19.4733 20.0189 19.4887 19.9654 19.5133C19.9264 19.5312 19.859 19.5807 19.8157 19.6235C19.7723 19.6662 19.6988 19.7012 19.6523 19.7012C19.5426 19.7012 19.4769 19.8087 19.4962 19.9565C19.5057 20.0293 19.4573 20.1161 19.3687 20.1848C19.2901 20.2457 19.2259 20.3354 19.2259 20.384C19.2259 20.4327 19.1896 20.4725 19.1452 20.4725C19.0947 20.4725 19.0727 20.5136 19.0861 20.5827C19.098 20.6433 19.084 20.6929 19.055 20.6929C19.026 20.6929 19.0023 20.7264 19.0023 20.7675C19.0023 20.8085 18.9432 20.9049 18.8709 20.9818C18.6452 21.2219 18.4966 21.4945 18.5583 21.5553C18.5957 21.5922 18.5771 21.6572 18.5021 21.7512C18.4403 21.8286 18.3663 21.9527 18.3377 22.027C18.2966 22.1335 18.2429 22.1637 18.0846 22.1696C17.974 22.1737 17.8351 22.2025 17.776 22.2338C17.7168 22.265 17.6353 22.2903 17.5949 22.2901C17.5034 22.2895 17.3626 22.0056 17.4326 21.963C17.4605 21.946 17.4353 21.8348 17.3765 21.7158C17.3179 21.5969 17.2698 21.442 17.2698 21.3717C17.2698 21.3014 17.2478 21.2438 17.2209 21.2438C17.194 21.2438 17.1554 21.1013 17.1353 20.927C17.0802 20.4492 17.0711 20.4023 17.0011 20.2372C16.9488 20.1139 16.9543 20.0403 17.0296 19.8549C17.0978 19.6869 17.105 19.6195 17.0566 19.6036C16.9774 19.5776 16.9672 19.4258 17.0446 19.4258C17.0743 19.4258 17.0842 19.3886 17.0665 19.3431C17.0478 19.295 17.066 19.2598 17.1102 19.2588C17.1595 19.2577 17.1512 19.2371 17.0862 19.1999C17.0147 19.1589 16.9871 19.0771 16.9889 18.9123C16.9929 18.5399 16.9862 18.4892 16.9327 18.4892C16.9049 18.4892 16.8847 18.4087 16.888 18.3102C16.8912 18.2117 16.852 18.0333 16.8007 17.9137C16.7494 17.7941 16.7198 17.6647 16.7347 17.6262C16.7497 17.5877 16.7379 17.5415 16.7085 17.5236C16.6791 17.5057 16.6551 17.4297 16.6551 17.3546C16.6551 17.2796 16.6201 17.1633 16.5772 17.0962C16.4791 16.9424 16.424 16.1313 16.5082 16.08C16.5413 16.0599 16.7218 16.049 16.9093 16.0558C17.206 16.0666 17.2699 16.0502 17.4026 15.929C17.5877 15.7599 17.7477 15.7506 17.831 15.9041ZM4.66421 18.4634C4.72389 18.5079 4.79783 18.5443 4.82857 18.5443C4.85931 18.5443 4.83567 18.5079 4.77598 18.4634C4.71635 18.4189 4.64236 18.3825 4.61162 18.3825C4.58088 18.3825 4.60458 18.4189 4.66421 18.4634ZM5.58303 18.5835C5.57935 18.6377 5.58242 18.7068 5.58974 18.7371C5.61355 18.8356 5.58572 19.887 5.55408 20.0833C5.52787 20.2458 5.53536 20.2643 5.60455 20.2077C5.65462 20.1667 5.67491 20.0852 5.65736 19.9949C5.63428 19.8758 5.64619 19.855 5.72107 19.8833C5.78741 19.9084 5.81317 19.8878 5.81317 19.8097C5.81317 19.75 5.78802 19.7012 5.75729 19.7012C5.72655 19.7012 5.7014 19.6764 5.7014 19.6461C5.7014 19.5694 5.88845 19.5771 5.96965 19.6571C6.0218 19.7085 6.03672 19.7085 6.03672 19.6571C6.03672 19.6208 6.01157 19.591 5.98083 19.591C5.95009 19.591 5.92495 19.5043 5.92495 19.3982C5.92495 19.2922 5.8998 19.2054 5.86906 19.2054C5.83832 19.2054 5.81613 19.224 5.81977 19.2467C5.83653 19.3512 5.80781 19.4258 5.75075 19.4258C5.68765 19.4258 5.70386 19.2701 5.78752 19.0724C5.81708 19.0026 5.81205 18.9792 5.77277 19.0032C5.69475 19.0506 5.6245 18.7737 5.69341 18.6905C5.72767 18.6492 5.71872 18.6021 5.66787 18.5559C5.60315 18.4971 5.58851 18.5019 5.58303 18.5835ZM5.53374 20.3688C5.53374 20.4026 5.48624 20.418 5.42817 20.403C5.34278 20.3811 5.31618 20.414 5.28907 20.5757C5.27063 20.6856 5.25526 20.8565 5.25493 20.9556C5.25437 21.1203 5.26627 21.1327 5.39403 21.1012C5.53279 21.0668 5.53374 21.0692 5.53542 21.4444C5.53732 21.8595 5.61902 21.8348 5.67178 21.4031C5.71465 21.0522 5.76371 20.8386 5.81641 20.7736C5.87431 20.7024 5.81703 20.6138 5.68111 20.5642C5.61092 20.5387 5.58644 20.4905 5.606 20.4168C5.62199 20.3565 5.61226 20.3072 5.58437 20.3072C5.55654 20.3072 5.53374 20.3349 5.53374 20.3688ZM5.69067 20.9725C5.67966 21.005 5.64674 21.0317 5.61757 21.0317C5.5884 21.0317 5.55548 21.005 5.54447 20.9725C5.53346 20.9399 5.56632 20.9132 5.61757 20.9132C5.66882 20.9132 5.70168 20.9399 5.69067 20.9725ZM6.27954 21.3839C6.26132 21.4307 6.25892 21.4812 6.27418 21.4963C6.28949 21.5113 6.31537 21.473 6.33174 21.4113C6.36661 21.28 6.32788 21.2597 6.27954 21.3839ZM6.32498 21.9049C6.32498 21.9806 6.33767 22.0117 6.35315 21.9738C6.36868 21.9359 6.36868 21.8739 6.35315 21.836C6.33767 21.7982 6.32498 21.8291 6.32498 21.9049ZM13.4406 22.2925C13.3554 22.455 13.356 22.4578 13.4635 22.3917C13.5244 22.3542 13.586 22.2789 13.6005 22.2244C13.6428 22.0649 13.5361 22.1104 13.4406 22.2925ZM18.0523 22.3732C18.0523 22.4186 18.0145 22.4558 17.9684 22.4558C17.9223 22.4558 17.8846 22.4186 17.8846 22.3732C17.8846 22.3277 17.9223 22.2905 17.9684 22.2905C18.0145 22.2905 18.0523 22.3277 18.0523 22.3732ZM17.8846 22.5568C17.8846 22.6285 17.8181 22.6762 17.7641 22.6433C17.7063 22.6081 17.7562 22.5109 17.832 22.5109C17.861 22.5109 17.8846 22.5316 17.8846 22.5568ZM6.81912 22.9516C6.85204 23.0122 6.8915 23.0618 6.90687 23.0618C6.92224 23.0618 6.90793 23.0122 6.87501 22.9516C6.84209 22.891 6.80264 22.8414 6.78727 22.8414C6.7719 22.8414 6.78621 22.891 6.81912 22.9516ZM15.9683 23.0618C15.9844 23.1224 16.0323 23.172 16.0748 23.172C16.1646 23.172 16.1757 23.3276 16.0943 23.4475C16.0445 23.5209 16.0306 23.5209 15.9694 23.4475C15.9316 23.402 15.8629 23.3648 15.8168 23.3648C15.7236 23.3648 15.7186 23.3245 15.7841 23.1031C15.8366 22.9255 15.9267 22.9052 15.9683 23.0618ZM16.343 23.0431C16.5131 23.1231 16.53 23.1486 16.4772 23.2459C16.4251 23.342 16.4083 23.3459 16.3543 23.2749C16.3199 23.2297 16.2478 23.1765 16.194 23.1565C16.1403 23.1366 16.0962 23.0824 16.0962 23.036C16.0962 22.9309 16.1047 22.9311 16.343 23.0431ZM16.9345 23.0894C16.9345 23.1348 16.8968 23.172 16.8507 23.172C16.8046 23.172 16.7669 23.1348 16.7669 23.0894C16.7669 23.0439 16.8046 23.0067 16.8507 23.0067C16.8968 23.0067 16.9345 23.0439 16.9345 23.0894ZM15.3741 23.4245C15.3768 23.4887 15.3901 23.5017 15.4079 23.4578C15.424 23.418 15.422 23.3705 15.4035 23.3522C15.3849 23.3339 15.3717 23.3664 15.3741 23.4245ZM5.86906 23.6127C5.86906 23.643 5.84391 23.6678 5.81317 23.6678C5.78244 23.6678 5.75729 23.643 5.75729 23.6127C5.75729 23.5824 5.78244 23.5576 5.81317 23.5576C5.84391 23.5576 5.86906 23.5824 5.86906 23.6127ZM9.78109 24.4326C9.78109 24.4629 9.80624 24.503 9.83698 24.5217C9.86772 24.5405 9.89287 24.531 9.89287 24.5007C9.89287 24.4704 9.86772 24.4303 9.83698 24.4116C9.80624 24.3928 9.78109 24.4023 9.78109 24.4326ZM6.72088 24.7017C6.71149 24.8338 6.71752 24.8398 6.77045 24.7506C6.80549 24.6914 6.80996 24.6284 6.78112 24.6C6.75229 24.5715 6.72708 24.6141 6.72088 24.7017ZM7.8528 24.6047C7.8172 24.6616 7.89544 24.9326 7.9397 24.9056C7.96496 24.8902 8.0199 24.81 8.06175 24.7272C8.13407 24.5844 8.13117 24.5768 8.00408 24.5768C7.93048 24.5768 7.86241 24.5894 7.8528 24.6047ZM6.98572 25.0739C6.92665 25.1441 6.93011 25.1522 7.00685 25.1231C7.05726 25.104 7.09856 25.0663 7.09856 25.0392C7.09856 24.9684 7.0662 24.9783 6.98572 25.0739ZM9.78551 25.2425C9.78819 25.3067 9.80144 25.3197 9.81926 25.2758C9.83542 25.2361 9.8334 25.1885 9.81485 25.1702C9.7963 25.1519 9.78311 25.1844 9.78551 25.2425ZM7.45952 25.3794C7.39939 25.4753 7.46785 25.4956 7.54453 25.4045C7.58862 25.3522 7.59287 25.3206 7.55576 25.3206C7.52312 25.3206 7.47976 25.347 7.45952 25.3794ZM9.44578 25.3757C9.44578 25.406 9.47243 25.4308 9.50496 25.4308C9.53749 25.4308 9.54861 25.406 9.52961 25.3757C9.5106 25.3454 9.484 25.3206 9.47042 25.3206C9.45684 25.3206 9.44578 25.3454 9.44578 25.3757ZM8.82734 25.7244C8.84992 25.8334 8.89955 25.9016 8.96007 25.9069C9.03116 25.9131 9.03418 25.9085 8.97153 25.8893C8.9167 25.8726 8.89474 25.8171 8.91005 25.7339C8.92352 25.6605 8.90295 25.5927 8.86255 25.5775C8.80968 25.5575 8.80057 25.5955 8.82734 25.7244ZM7.09772 25.72C7.09643 25.8211 6.99869 25.9567 6.95677 25.9153C6.90793 25.8672 6.98125 25.6511 7.04641 25.6511C7.07508 25.6511 7.09816 25.6821 7.09772 25.72ZM8.30609 25.9035C8.28742 25.9515 8.27217 26.0279 8.27217 26.0734C8.27217 26.1189 8.24076 26.1458 8.20231 26.1332C8.14005 26.1127 8.12977 26.0579 8.15341 25.8715C8.15726 25.8412 8.2008 25.8164 8.2502 25.8164C8.30916 25.8164 8.32833 25.8464 8.30609 25.9035ZM8.04862 25.9541C8.04862 26.0468 8.03839 26.0506 7.91349 26.0033C7.78858 25.9561 7.80362 25.8715 7.93685 25.8715C7.99894 25.8715 8.04862 25.9082 8.04862 25.9541ZM9.16635 25.9817C9.0947 26.0273 9.09671 26.0352 9.18032 26.0359C9.23414 26.0364 9.27812 26.012 9.27812 25.9817C9.27812 25.9145 9.2718 25.9145 9.16635 25.9817ZM7.09856 26.0368C7.09856 26.0671 7.07341 26.0919 7.04267 26.0919C7.01193 26.0919 6.98678 26.0671 6.98678 26.0368C6.98678 26.0065 7.01193 25.9817 7.04267 25.9817C7.07341 25.9817 7.09856 26.0065 7.09856 26.0368ZM9.89287 26.0951C9.89287 26.1272 9.91802 26.1381 9.94875 26.1194C9.97949 26.1007 10.0046 26.0744 10.0046 26.0611C10.0046 26.0477 9.97949 26.0368 9.94875 26.0368C9.91802 26.0368 9.89287 26.063 9.89287 26.0951ZM8.70646 26.1573C8.67192 26.2594 8.5516 26.2764 8.5516 26.1791C8.5516 26.1311 8.59144 26.0919 8.64006 26.0919C8.68874 26.0919 8.71864 26.1213 8.70646 26.1573ZM5.14254 26.202C5.14254 26.2323 5.1692 26.2571 5.20172 26.2571C5.23425 26.2571 5.24537 26.2323 5.22637 26.202C5.20737 26.1717 5.18076 26.1469 5.16718 26.1469C5.1536 26.1469 5.14254 26.1717 5.14254 26.202ZM9.11046 26.2112C9.11046 26.2365 9.14818 26.2571 9.19429 26.2571C9.24039 26.2571 9.27812 26.2365 9.27812 26.2112C9.27812 26.1859 9.24039 26.1653 9.19429 26.1653C9.14818 26.1653 9.11046 26.1859 9.11046 26.2112ZM12.743 26.1883C12.7428 26.2675 12.4627 26.55 12.4231 26.5109C12.401 26.4892 12.417 26.4508 12.4584 26.4255C12.4999 26.4003 12.5175 26.3536 12.4976 26.3218C12.4776 26.29 12.5058 26.2383 12.5603 26.2071C12.6791 26.1388 12.7431 26.1323 12.743 26.1883ZM7.48976 26.3916C7.48976 26.5048 7.37407 26.5604 7.31953 26.4734C7.29427 26.4331 7.286 26.3804 7.30114 26.3562C7.34809 26.2813 7.48976 26.3079 7.48976 26.3916ZM8.6618 26.562C8.59999 26.6354 8.59966 26.6591 8.66013 26.6959C8.75234 26.7521 8.70009 26.8408 8.55249 26.8789C8.39031 26.9207 8.38221 26.7256 8.53645 26.4935C8.59541 26.4048 8.64258 26.3799 8.68047 26.4172C8.71842 26.4546 8.71227 26.502 8.6618 26.562ZM7.76919 26.7438C7.76919 26.8155 7.70274 26.8632 7.6487 26.8303C7.59091 26.7951 7.64076 26.6979 7.7166 26.6979C7.74555 26.6979 7.76919 26.7185 7.76919 26.7438ZM9.07793 26.7313C9.22257 26.786 9.1887 26.937 9.0406 26.8978C8.97141 26.8796 8.88345 26.8643 8.845 26.8639C8.73971 26.8628 8.76117 26.7646 8.87294 26.7358C8.92676 26.722 8.97499 26.7078 8.98013 26.7043C8.98533 26.7007 9.02931 26.7129 9.07793 26.7313ZM8.35901 27.0332C8.37964 27.0661 8.36751 27.1217 8.33202 27.1567C8.28329 27.2048 8.25467 27.2002 8.21483 27.1382C8.18582 27.0929 8.16174 27.0374 8.16123 27.0146C8.15995 26.951 8.31671 26.9657 8.35901 27.0332ZM8.71926 27.1143C8.71926 27.158 8.68153 27.1937 8.63543 27.1937C8.54143 27.1937 8.53763 27.1835 8.58541 27.0608C8.62464 26.9599 8.71926 26.9977 8.71926 27.1143ZM9.08833 27.1788C9.03155 27.2348 8.98466 27.1504 9.03127 27.0761C9.06648 27.0199 9.07967 27.0199 9.09856 27.0759C9.11152 27.1142 9.10688 27.1605 9.08833 27.1788ZM7.65742 27.1937C7.65742 27.224 7.61969 27.2488 7.57359 27.2488C7.52748 27.2488 7.48976 27.224 7.48976 27.1937C7.48976 27.1634 7.52748 27.1386 7.57359 27.1386C7.61969 27.1386 7.65742 27.1634 7.65742 27.1937ZM9.66932 27.1837C9.66932 27.2503 9.77534 27.3279 9.81412 27.2897C9.82815 27.2758 9.80133 27.2331 9.75449 27.1948C9.7014 27.1513 9.66932 27.1471 9.66932 27.1837ZM8.73323 27.408C8.75625 27.4114 8.77514 27.4636 8.77514 27.5242C8.77514 27.5977 8.73787 27.6344 8.66337 27.6344C8.60189 27.6344 8.5516 27.5995 8.5516 27.557C8.5516 27.5066 8.51248 27.4895 8.43982 27.5083C8.36477 27.5277 8.32805 27.51 8.32805 27.4545C8.32805 27.3798 8.44463 27.3665 8.73323 27.408ZM9.23548 27.4257C9.28181 27.5627 9.2086 27.7446 9.10722 27.7446C9.05116 27.7446 8.98947 27.7698 8.97019 27.8006C8.93073 27.8635 8.83103 27.8211 8.83103 27.7414C8.83103 27.7128 8.86607 27.6895 8.90888 27.6895C9.01037 27.6895 9.06821 27.5391 8.986 27.489C8.94409 27.4634 8.95929 27.4359 9.03032 27.4084C9.18496 27.3487 9.21016 27.3509 9.23548 27.4257ZM7.10018 27.9077C7.05496 27.9359 7.03166 27.9725 7.04837 27.9889C7.06508 28.0055 7.12723 27.9828 7.18646 27.9386C7.30427 27.8507 7.23268 27.8251 7.10018 27.9077ZM9.20943 28.0648C9.22162 28.1008 9.19172 28.1302 9.14304 28.1302C9.09442 28.1302 9.05457 28.091 9.05457 28.043C9.05457 27.9457 9.1749 27.9627 9.20943 28.0648ZM9.73834 28.2616C9.76718 28.3048 9.77964 28.3026 9.78026 28.2542C9.7807 28.2164 9.83139 28.1853 9.89287 28.1853C9.95993 28.1853 10.0046 28.2221 10.0046 28.2772C10.0046 28.3276 10.0193 28.3545 10.0373 28.3367C10.0919 28.283 10.4024 28.4136 10.3798 28.4808C10.3499 28.5694 9.96161 28.57 9.88717 28.4816C9.79507 28.3722 9.61506 28.4827 9.65295 28.6254C9.67061 28.6918 9.65501 28.7363 9.61399 28.7363C9.57638 28.7363 9.55934 28.7009 9.57622 28.6576C9.59304 28.6144 9.57057 28.5494 9.52631 28.5132C9.48199 28.4769 9.44578 28.3743 9.44578 28.2851C9.44578 28.1421 9.4607 28.1274 9.57152 28.1615C9.64071 28.1828 9.71576 28.2278 9.73834 28.2616ZM7.12225 28.2575C7.05446 28.3341 7.0795 28.4608 7.16238 28.4608C7.19239 28.4608 7.20072 28.4349 7.18088 28.4033C7.16104 28.3717 7.17523 28.3097 7.21234 28.2655C7.29399 28.1686 7.2077 28.1609 7.12225 28.2575ZM9.05457 28.3539C9.05457 28.3824 9.01685 28.4057 8.97074 28.4057C8.88434 28.4057 8.8597 28.3407 8.92263 28.2787C8.96728 28.2346 9.05457 28.2844 9.05457 28.3539ZM9.55755 28.2988C9.55755 28.3308 9.5827 28.3418 9.61344 28.3231C9.64417 28.3043 9.66932 28.2781 9.66932 28.2647C9.66932 28.2513 9.64417 28.2404 9.61344 28.2404C9.5827 28.2404 9.55755 28.2667 9.55755 28.2988ZM7.7133 28.3506C7.7133 28.3809 7.68816 28.4057 7.65742 28.4057C7.62668 28.4057 7.60153 28.3809 7.60153 28.3506C7.60153 28.3203 7.62668 28.2955 7.65742 28.2955C7.68816 28.2955 7.7133 28.3203 7.7133 28.3506ZM15.2062 28.4759C15.1993 28.5418 15.1227 28.5291 15.0987 28.458C15.0864 28.4217 15.1065 28.4018 15.1434 28.414C15.1803 28.4261 15.2085 28.454 15.2062 28.4759ZM9.50166 28.7913C9.50166 28.8216 9.47651 28.8464 9.44578 28.8464C9.41504 28.8464 9.38989 28.8216 9.38989 28.7913C9.38989 28.761 9.41504 28.7363 9.44578 28.7363C9.47651 28.7363 9.50166 28.761 9.50166 28.7913ZM15.0344 28.7605C15.0344 28.7739 15.0092 28.8002 14.9785 28.8189C14.9478 28.8376 14.9226 28.8267 14.9226 28.7946C14.9226 28.7625 14.9478 28.7363 14.9785 28.7363C15.0092 28.7363 15.0344 28.7472 15.0344 28.7605ZM9.89287 28.8156C9.89287 28.829 9.86772 28.8553 9.83698 28.874C9.80624 28.8927 9.78109 28.8818 9.78109 28.8497C9.78109 28.8176 9.80624 28.7913 9.83698 28.7913C9.86772 28.7913 9.89287 28.8023 9.89287 28.8156ZM14.755 29.1494C14.755 29.1949 14.7172 29.2321 14.6711 29.2321C14.5838 29.2321 14.5603 29.1669 14.6246 29.1035C14.6889 29.0401 14.755 29.0634 14.755 29.1494ZM10.2282 29.2321C10.2282 29.2624 10.2015 29.2872 10.169 29.2872C10.1365 29.2872 10.1254 29.2624 10.1444 29.2321C10.1634 29.2018 10.19 29.177 10.2035 29.177C10.2171 29.177 10.2282 29.2018 10.2282 29.2321ZM13.4568 29.4972C13.469 29.5332 13.4391 29.5626 13.3904 29.5626C13.3417 29.5626 13.3019 29.5234 13.3019 29.4754C13.3019 29.3781 13.4222 29.395 13.4568 29.4972ZM12.0165 29.5075C12.0165 29.5378 11.9914 29.5626 11.9607 29.5626C11.9299 29.5626 11.9048 29.5378 11.9048 29.5075C11.9048 29.4772 11.9299 29.4524 11.9607 29.4524C11.9914 29.4524 12.0165 29.4772 12.0165 29.5075ZM8.48051 30.0621C8.50018 30.1364 8.52969 30.1572 8.5654 30.122C8.62324 30.065 8.57775 29.9483 8.49767 29.9483C8.47162 29.9483 8.46386 29.9995 8.48051 30.0621ZM9.1417 30.9346C9.0876 31.021 9.01618 31.0092 8.97656 30.9074C8.92335 30.7708 8.99953 30.6968 9.09576 30.7916C9.14187 30.8371 9.16255 30.9014 9.1417 30.9346ZM9.73638 31.4254C9.79607 31.4848 9.79154 31.5074 9.71124 31.5521C9.65742 31.582 9.61344 31.6424 9.61344 31.6864C9.61344 31.7303 9.59265 31.7663 9.56727 31.7663C9.48115 31.7663 9.26381 31.4968 9.29187 31.4248C9.32814 31.3316 9.64261 31.3321 9.73638 31.4254ZM9.9767 31.6561C9.95769 31.6864 9.91852 31.7112 9.88957 31.7112C9.86062 31.7112 9.83698 31.6864 9.83698 31.6561C9.83698 31.6258 9.87621 31.601 9.92411 31.601C9.972 31.601 9.9957 31.6258 9.9767 31.6561ZM8.99869 31.7067C8.99869 31.7345 8.98466 31.7933 8.96756 31.8373C8.95018 31.8819 8.97617 31.9324 9.0263 31.9514C9.08866 31.975 9.10291 31.9645 9.07285 31.9172C9.04898 31.8796 9.03663 31.8055 9.04552 31.7525C9.05435 31.6995 9.04742 31.6561 9.03015 31.6561C9.01283 31.6561 8.99869 31.6789 8.99869 31.7067ZM10.1036 31.7766C10.0691 31.8788 9.94875 31.8957 9.94875 31.7984C9.94875 31.7504 9.9886 31.7112 10.0372 31.7112C10.0859 31.7112 10.1158 31.7406 10.1036 31.7766ZM9.334 32.1487C9.334 32.1772 9.35887 32.2157 9.38928 32.2342C9.42091 32.2535 9.4303 32.2314 9.41124 32.1823C9.37408 32.0869 9.334 32.0695 9.334 32.1487ZM10.2282 32.207C10.2282 32.2373 10.2015 32.2621 10.169 32.2621C10.1365 32.2621 10.1254 32.2373 10.1444 32.207C10.1634 32.1767 10.19 32.1519 10.2035 32.1519C10.2171 32.1519 10.2282 32.1767 10.2282 32.207ZM9.17076 32.2942C9.17344 32.3584 9.18669 32.3715 9.20452 32.3276C9.22067 32.2878 9.21866 32.2402 9.2001 32.222C9.18155 32.2037 9.16836 32.2362 9.17076 32.2942ZM9.72521 32.3172C9.72521 32.3475 9.75036 32.3723 9.78109 32.3723C9.81183 32.3723 9.83698 32.3971 9.83698 32.4274C9.83698 32.4577 9.80194 32.4825 9.75913 32.4825C9.71632 32.4825 9.66681 32.5197 9.64909 32.5651C9.63003 32.6141 9.64853 32.6478 9.69447 32.6478C9.73706 32.6478 9.81803 32.6648 9.87431 32.6856C9.96345 32.7186 9.96703 32.7118 9.90203 32.6329C9.86096 32.5831 9.84218 32.5188 9.86029 32.4899C9.90186 32.4235 9.84151 32.2621 9.77511 32.2621C9.74767 32.2621 9.72521 32.2869 9.72521 32.3172ZM9.94875 33.1987C9.94875 33.229 9.97541 33.2538 10.0079 33.2538C10.0405 33.2538 10.0516 33.229 10.0326 33.1987C10.0136 33.1684 9.98698 33.1436 9.9734 33.1436C9.95982 33.1436 9.94875 33.1684 9.94875 33.1987ZM10.787 34.9924C10.787 35.0396 10.7619 35.063 10.7312 35.0442C10.7004 35.0255 10.6753 34.9869 10.6753 34.9584C10.6753 34.9298 10.7004 34.9065 10.7312 34.9065C10.7619 34.9065 10.787 34.9452 10.787 34.9924ZM10.1015 35.1337C10.1394 35.1714 10.1845 35.1883 10.2017 35.1713C10.2189 35.1544 10.1879 35.1236 10.1328 35.1029C10.0531 35.073 10.0467 35.0793 10.1015 35.1337ZM10.2133 35.3973C10.1921 35.4773 10.2118 35.5028 10.2903 35.4969C10.4153 35.4876 10.4248 35.4395 10.3188 35.3528C10.2585 35.3035 10.2357 35.313 10.2133 35.3973ZM10.2282 35.7277C10.2282 35.7552 10.2785 35.7647 10.34 35.7489C10.4014 35.733 10.4517 35.7105 10.4517 35.6989C10.4517 35.6873 10.4014 35.6778 10.34 35.6778C10.2785 35.6778 10.2282 35.7003 10.2282 35.7277ZM10.903 35.8031C10.8961 35.869 10.8195 35.8562 10.7954 35.7852C10.7831 35.7489 10.8033 35.729 10.8401 35.7412C10.877 35.7533 10.9053 35.7812 10.903 35.8031ZM10.3679 35.9533C10.3489 35.9836 10.3585 36.0083 10.3892 36.0083C10.42 36.0083 10.4607 35.9836 10.4797 35.9533C10.4987 35.923 10.4891 35.8982 10.4583 35.8982C10.4276 35.8982 10.3869 35.923 10.3679 35.9533ZM10.9527 36.0598C11.0421 36.2244 11.0227 36.2728 10.8709 36.2642C10.7578 36.2577 10.7312 36.2275 10.7312 36.1048C10.7312 35.9262 10.8654 35.8989 10.9527 36.0598Z" fill="black"/>
</svg>
